%TF.GenerationSoftware,KiCad,Pcbnew,10.0.3*%
%TF.CreationDate,2026-07-03T13:14:47+02:00*%
%TF.ProjectId,fab26_cablebot,66616232-365f-4636-9162-6c65626f742e,rev?*%
%TF.SameCoordinates,Original*%
%TF.FileFunction,Soldermask,Top*%
%TF.FilePolarity,Negative*%
%FSLAX46Y46*%
G04 Gerber Fmt 4.6, Leading zero omitted, Abs format (unit mm)*
G04 Created by KiCad (PCBNEW 10.0.3) date 2026-07-03 13:14:47*
%MOMM*%
%LPD*%
G01*
G04 APERTURE LIST*
G04 Aperture macros list*
%AMRoundRect*
0 Rectangle with rounded corners*
0 $1 Rounding radius*
0 $2 $3 $4 $5 $6 $7 $8 $9 X,Y pos of 4 corners*
0 Add a 4 corners polygon primitive as box body*
4,1,4,$2,$3,$4,$5,$6,$7,$8,$9,$2,$3,0*
0 Add four circle primitives for the rounded corners*
1,1,$1+$1,$2,$3*
1,1,$1+$1,$4,$5*
1,1,$1+$1,$6,$7*
1,1,$1+$1,$8,$9*
0 Add four rect primitives between the rounded corners*
20,1,$1+$1,$2,$3,$4,$5,0*
20,1,$1+$1,$4,$5,$6,$7,0*
20,1,$1+$1,$6,$7,$8,$9,0*
20,1,$1+$1,$8,$9,$2,$3,0*%
G04 Aperture macros list end*
%ADD10R,1.600000X1.200000*%
%ADD11R,1.500000X2.000000*%
%ADD12R,3.800000X2.000000*%
%ADD13RoundRect,0.152400X1.063600X0.609600X-1.063600X0.609600X-1.063600X-0.609600X1.063600X-0.609600X0*%
%ADD14C,1.524000*%
%ADD15RoundRect,0.152400X-1.063600X-0.609600X1.063600X-0.609600X1.063600X0.609600X-1.063600X0.609600X0*%
%ADD16O,1.700000X1.700000*%
%ADD17R,1.200000X1.600000*%
%ADD18R,1.600000X0.600000*%
%ADD19R,2.700000X2.900000*%
%ADD20R,2.000000X2.500000*%
%ADD21R,1.700000X1.400000*%
%ADD22C,0.950000*%
%ADD23R,1.200000X1.000000*%
%ADD24R,3.000000X1.000000*%
%ADD25R,1.800000X1.000000*%
%ADD26R,1.500000X0.900000*%
%ADD27R,1.270000X1.270000*%
%ADD28C,1.500000*%
%ADD29C,1.270000*%
G04 APERTURE END LIST*
D10*
%TO.C,R2*%
X125730000Y-108736000D03*
X125730000Y-111736000D03*
%TD*%
D11*
%TO.C,U2*%
X163308000Y-77724000D03*
X165608000Y-77724000D03*
D12*
X165608000Y-71424000D03*
D11*
X167908000Y-77724000D03*
%TD*%
D13*
%TO.C,U1*%
X132578500Y-74187000D03*
D14*
X133413500Y-74187000D03*
D13*
X132578500Y-76727000D03*
D14*
X133413500Y-76727000D03*
D13*
X132578500Y-79267000D03*
D14*
X133413500Y-79267000D03*
D13*
X132578500Y-81807000D03*
D14*
X133413500Y-81807000D03*
D13*
X132578500Y-84347000D03*
D14*
X133413500Y-84347000D03*
D13*
X132578500Y-86887000D03*
D14*
X133413500Y-86887000D03*
D13*
X132578500Y-89427000D03*
D14*
X133413500Y-89427000D03*
X148653500Y-89427000D03*
D15*
X149488500Y-89427000D03*
D14*
X148653500Y-86887000D03*
D15*
X149488500Y-86887000D03*
D14*
X148653500Y-84347000D03*
D15*
X149488500Y-84347000D03*
D14*
X148653500Y-81807000D03*
D15*
X149488500Y-81807000D03*
D14*
X148653500Y-79267000D03*
D15*
X149488500Y-79267000D03*
D14*
X148653500Y-76727000D03*
D15*
X149488500Y-76727000D03*
D14*
X148653500Y-74187000D03*
D15*
X149488500Y-74187000D03*
%TD*%
D10*
%TO.C,R3*%
X173228000Y-76484000D03*
X173228000Y-73484000D03*
%TD*%
D16*
%TO.C,J2*%
X122936000Y-111760000D03*
X120396000Y-111760000D03*
%TD*%
%TO.C,J3*%
X176530000Y-82423000D03*
X176530000Y-79883000D03*
%TD*%
D17*
%TO.C,C1*%
X157758000Y-90170000D03*
X160758000Y-90170000D03*
%TD*%
D18*
%TO.C,U5*%
X158898000Y-83693000D03*
X158898000Y-84963000D03*
X158898000Y-86233000D03*
X158898000Y-87503000D03*
X164698000Y-87503000D03*
X164698000Y-86233000D03*
X164698000Y-84963000D03*
X164698000Y-83693000D03*
D19*
X161798000Y-85598000D03*
%TD*%
D11*
%TO.C,RV1*%
X157370000Y-98718000D03*
D20*
X156210000Y-93218000D03*
D11*
X155060000Y-98718000D03*
%TD*%
D21*
%TO.C,D1*%
X176276000Y-76630000D03*
X176276000Y-73230000D03*
%TD*%
D10*
%TO.C,C3*%
X170688000Y-76454000D03*
X170688000Y-73454000D03*
%TD*%
D16*
%TO.C,J6*%
X130810000Y-112278000D03*
X130810000Y-109738000D03*
X130810000Y-107198000D03*
%TD*%
D22*
%TO.C,SW1*%
X178562000Y-90503000D03*
X178562000Y-87503000D03*
D23*
X175962000Y-91503000D03*
X175962000Y-89003000D03*
X175962000Y-86503000D03*
%TD*%
D24*
%TO.C,C2*%
X167446000Y-95123000D03*
X162246000Y-95123000D03*
%TD*%
D10*
%TO.C,R6*%
X156500000Y-109500000D03*
X156500000Y-106500000D03*
%TD*%
D25*
%TO.C,D2*%
X155900000Y-74600000D03*
X155900000Y-72900000D03*
X153500000Y-73750000D03*
%TD*%
D10*
%TO.C,R4*%
X167373000Y-84900000D03*
X167373000Y-81900000D03*
%TD*%
%TO.C,C4*%
X159272000Y-73684000D03*
X159272000Y-76684000D03*
%TD*%
D16*
%TO.C,J4*%
X177463500Y-97282000D03*
X177463500Y-99822000D03*
X177463500Y-102362000D03*
%TD*%
D26*
%TO.C,U3*%
X174198500Y-102996000D03*
X174198500Y-99696000D03*
X169298500Y-99696000D03*
X169298500Y-102996000D03*
%TD*%
D16*
%TO.C,J5*%
X171450000Y-83820000D03*
X171450000Y-86360000D03*
%TD*%
%TO.C,J8*%
X130813000Y-97536000D03*
X124244000Y-97536000D03*
%TD*%
D10*
%TO.C,R1*%
X127000000Y-72668000D03*
X127000000Y-75668000D03*
%TD*%
D16*
%TO.C,J1*%
X123444000Y-72644000D03*
X120904000Y-72644000D03*
%TD*%
D10*
%TO.C,R5*%
X153500000Y-110500000D03*
X153500000Y-107500000D03*
%TD*%
D27*
%TO.C,U6*%
X137963880Y-111996000D03*
D28*
X137964000Y-109994480D03*
X137964000Y-107998040D03*
X137964000Y-105996520D03*
%TD*%
D27*
%TO.C,U7*%
X125475120Y-81175260D03*
D29*
X125475000Y-83176780D03*
X125475000Y-85173220D03*
X125475000Y-87174740D03*
%TD*%
D27*
%TO.C,U4*%
X160499880Y-111996000D03*
D28*
X160500000Y-109994480D03*
X160500000Y-107998040D03*
X160500000Y-105996520D03*
%TD*%
M02*
