M48
; DRILL file KiCad 10.0.3 date 2026-07-03T13:14:50
; FORMAT={-:-/ absolute / metric / decimal}
; #@! TF.CreationDate,2026-07-03T13:14:50+02:00
; #@! TF.GenerationSoftware,Kicad,Pcbnew,10.0.3
; #@! TF.FileFunction,Plated,1,2,PTH
FMAT,2
METRIC
; #@! TA.AperFunction,Plated,PTH,ComponentDrill
T1C0.798
; #@! TA.AperFunction,Plated,PTH,ComponentDrill
T2C0.850
; #@! TA.AperFunction,Plated,PTH,ComponentDrill
T3C0.889
; #@! TA.AperFunction,Plated,PTH,ViaDrill
T4C0.900
; #@! TA.AperFunction,Plated,PTH,ComponentDrill
T5C0.950
; #@! TA.AperFunction,Plated,PTH,ComponentDrill
T6C1.000
%
G90
G05
T1
X125.475Y-83.177
X125.475Y-85.173
X125.475Y-87.175
X125.475Y-81.175
T2
X137.964Y-111.996
X137.964Y-105.997
X137.964Y-107.998
X137.964Y-109.994
X160.5Y-111.996
X160.5Y-105.997
X160.5Y-107.998
X160.5Y-109.994
T3
X133.413Y-74.187
X133.413Y-76.727
X133.413Y-79.267
X133.413Y-81.807
X133.413Y-84.347
X133.413Y-86.887
X133.413Y-89.427
X148.653Y-74.187
X148.653Y-76.727
X148.653Y-79.267
X148.653Y-81.807
X148.653Y-84.347
X148.653Y-86.887
X148.653Y-89.427
T4
X153.25Y-76.727
X155.0Y-101.0
X161.75Y-81.25
T5
X178.562Y-87.503
X178.562Y-90.503
T6
X120.396Y-111.76
X120.904Y-72.644
X122.936Y-111.76
X123.444Y-72.644
X124.244Y-97.536
X130.81Y-107.198
X130.81Y-109.738
X130.81Y-112.278
X130.813Y-97.536
X171.45Y-83.82
X171.45Y-86.36
X176.53Y-79.883
X176.53Y-82.423
X177.463Y-97.282
X177.463Y-99.822
X177.463Y-102.362
M30
