%TF.GenerationSoftware,KiCad,Pcbnew,10.0.3*%
%TF.CreationDate,2026-07-03T13:14:46+02:00*%
%TF.ProjectId,fab26_cablebot,66616232-365f-4636-9162-6c65626f742e,rev?*%
%TF.SameCoordinates,Original*%
%TF.FileFunction,Copper,L2,Bot*%
%TF.FilePolarity,Positive*%
%FSLAX46Y46*%
G04 Gerber Fmt 4.6, Leading zero omitted, Abs format (unit mm)*
G04 Created by KiCad (PCBNEW 10.0.3) date 2026-07-03 13:14:46*
%MOMM*%
%LPD*%
G01*
G04 APERTURE LIST*
%TA.AperFunction,ComponentPad*%
%ADD10C,1.524000*%
%TD*%
%TA.AperFunction,ComponentPad*%
%ADD11O,1.700000X1.700000*%
%TD*%
%TA.AperFunction,ComponentPad*%
%ADD12C,0.950000*%
%TD*%
%TA.AperFunction,ComponentPad*%
%ADD13R,1.270000X1.270000*%
%TD*%
%TA.AperFunction,ComponentPad*%
%ADD14C,1.500000*%
%TD*%
%TA.AperFunction,ComponentPad*%
%ADD15C,1.270000*%
%TD*%
%TA.AperFunction,ViaPad*%
%ADD16C,1.600000*%
%TD*%
%TA.AperFunction,Conductor*%
%ADD17C,0.600000*%
%TD*%
G04 APERTURE END LIST*
D10*
%TO.P,U1,1,GPIO2_A0_D0_1*%
%TO.N,LDR1*%
X133413500Y-74187000D03*
%TO.P,U1,2,GPIO3_A1_D1_2*%
%TO.N,LDR2*%
X133413500Y-76727000D03*
%TO.P,U1,3,GPIO4_A2_D2_3*%
%TO.N,EXTRA1*%
X133413500Y-79267000D03*
%TO.P,U1,4,GPIO5_A3_D3_4*%
%TO.N,EXTRA2*%
X133413500Y-81807000D03*
%TO.P,U1,5,GPIO6_D4_SDA_5*%
%TO.N,SDA*%
X133413500Y-84347000D03*
%TO.P,U1,6,GPIO7_D5_SCL_6*%
%TO.N,SCL*%
X133413500Y-86887000D03*
%TO.P,U1,7,GPIO21_D6_TX_7*%
%TO.N,BUZZER*%
X133413500Y-89427000D03*
%TO.P,U1,8,GPIO20_D7_RX_8*%
%TO.N,NPX*%
X148653500Y-89427000D03*
%TO.P,U1,9,GPIO8_D8_SCK_9*%
%TO.N,SERVO*%
X148653500Y-86887000D03*
%TO.P,U1,10,GPIO9_D9_MISO_10*%
%TO.N,DRVR_IN_1*%
X148653500Y-84347000D03*
%TO.P,U1,11,GPIO10_D10_MOSI_11*%
%TO.N,DRVR_IN_2*%
X148653500Y-81807000D03*
%TO.P,U1,12,3V3_12*%
%TO.N,3V3*%
X148653500Y-79267000D03*
%TO.P,U1,13,GND_13*%
%TO.N,GND*%
X148653500Y-76727000D03*
%TO.P,U1,14,VBUS_14*%
%TO.N,5V*%
X148653500Y-74187000D03*
%TD*%
D11*
%TO.P,J2,1,Pin_1_1*%
%TO.N,LDR2*%
X122936000Y-111760000D03*
%TO.P,J2,2,Pin_2_2*%
%TO.N,GND*%
X120396000Y-111760000D03*
%TD*%
%TO.P,J3,1,Pin_1_1*%
%TO.N,9V*%
X176530000Y-82423000D03*
%TO.P,J3,2,Pin_2_2*%
%TO.N,GND*%
X176530000Y-79883000D03*
%TD*%
%TO.P,J6,1,Pin_1_1*%
%TO.N,GND*%
X130810000Y-112278000D03*
%TO.P,J6,2,Pin_2_2*%
%TO.N,3V3*%
X130810000Y-109738000D03*
%TO.P,J6,3,Pin_3_3*%
%TO.N,SERVO*%
X130810000Y-107198000D03*
%TD*%
D12*
%TO.P,SW1,*%
%TO.N,*%
X178562000Y-90503000D03*
X178562000Y-87503000D03*
%TD*%
D11*
%TO.P,J4,1,Pin_1_1*%
%TO.N,GND*%
X177463500Y-97282000D03*
%TO.P,J4,2,Pin_2_2*%
%TO.N,NPX_OUT*%
X177463500Y-99822000D03*
%TO.P,J4,3,Pin_3_3*%
%TO.N,3V3*%
X177463500Y-102362000D03*
%TD*%
%TO.P,J5,1,Pin_1_1*%
%TO.N,MOTOR_B*%
X171450000Y-83820000D03*
%TO.P,J5,2,Pin_2_2*%
%TO.N,MOTOR_A*%
X171450000Y-86360000D03*
%TD*%
%TO.P,J8,1,Pin_1_1*%
%TO.N,BUZZER*%
X130813000Y-97536000D03*
%TO.P,J8,2,Pin_2_2*%
%TO.N,GND*%
X124244000Y-97536000D03*
%TD*%
%TO.P,J1,1,Pin_1_1*%
%TO.N,LDR1*%
X123444000Y-72644000D03*
%TO.P,J1,2,Pin_2_2*%
%TO.N,GND*%
X120904000Y-72644000D03*
%TD*%
D13*
%TO.P,U6,1,GND_1*%
%TO.N,GND*%
X137963880Y-111996000D03*
D14*
%TO.P,U6,2,VDD_2*%
%TO.N,3V3*%
X137964000Y-109994480D03*
%TO.P,U6,3,SDA_3*%
%TO.N,SDA*%
X137964000Y-107998040D03*
%TO.P,U6,4,SCL_4*%
%TO.N,SCL*%
X137964000Y-105996520D03*
%TD*%
D13*
%TO.P,U7,1,GND_1*%
%TO.N,GND*%
X125475120Y-81175260D03*
D15*
%TO.P,U7,2,VDD_2*%
%TO.N,3V3*%
X125475000Y-83176780D03*
%TO.P,U7,3,SDA_3*%
%TO.N,EXTRA1*%
X125475000Y-85173220D03*
%TO.P,U7,4,SCL_4*%
%TO.N,EXTRA2*%
X125475000Y-87174740D03*
%TD*%
D13*
%TO.P,U4,1,GND_1*%
%TO.N,GND*%
X160499880Y-111996000D03*
D14*
%TO.P,U4,2,VDD_2*%
%TO.N,3V3*%
X160500000Y-109994480D03*
%TO.P,U4,3,SDA_3*%
%TO.N,SDA*%
X160500000Y-107998040D03*
%TO.P,U4,4,SCL_4*%
%TO.N,SCL*%
X160500000Y-105996520D03*
%TD*%
D16*
%TO.N,GND*%
X161750000Y-81250000D03*
X153250000Y-76727000D03*
X155000000Y-101000000D03*
%TD*%
%TO.N,LDR2*%
D17*
X129000000Y-81140500D02*
X129000000Y-91500000D01*
X129000000Y-91500000D02*
X127500000Y-93000000D01*
X133413500Y-76727000D02*
X129000000Y-81140500D01*
X127500000Y-93000000D02*
X127500000Y-107196000D01*
X127500000Y-107196000D02*
X122936000Y-111760000D01*
%TO.N,GND*%
X155000000Y-101000000D02*
X155000000Y-98750000D01*
X149426500Y-77500000D02*
X152477000Y-77500000D01*
X155000000Y-106545090D02*
X155000000Y-101000000D01*
X148653500Y-76846500D02*
X148250000Y-77250000D01*
X125500000Y-80000000D02*
X125000000Y-79500000D01*
X160499880Y-111996000D02*
X162749500Y-111996000D01*
X149176500Y-77250000D02*
X149426500Y-77500000D01*
X148250000Y-77250000D02*
X147250000Y-77250000D01*
X148653500Y-76727000D02*
X148653500Y-76846500D01*
X152477000Y-77500000D02*
X153250000Y-76727000D01*
X162749500Y-111996000D02*
X177463500Y-97282000D01*
X160450910Y-111996000D02*
X155000000Y-106545090D01*
X160499880Y-111996000D02*
X160450910Y-111996000D01*
X125500000Y-81000000D02*
X125500000Y-80000000D01*
%TO.N,SDA*%
X133413500Y-84347000D02*
X136847000Y-84347000D01*
X139024660Y-107998040D02*
X137964000Y-107998040D01*
X136847000Y-84347000D02*
X140500000Y-88000000D01*
X140500000Y-106522700D02*
X139024660Y-107998040D01*
X140500000Y-88000000D02*
X140500000Y-106522700D01*
%TO.N,SCL*%
X137964000Y-88864000D02*
X137964000Y-105996520D01*
X133413500Y-86887000D02*
X135987000Y-86887000D01*
X135987000Y-86887000D02*
X137964000Y-88864000D01*
%TD*%
%TA.AperFunction,Conductor*%
%TO.N,GND*%
G36*
X163015677Y-74269685D02*
G01*
X163036319Y-74286319D01*
X164213681Y-75463681D01*
X164247166Y-75525004D01*
X164250000Y-75551362D01*
X164250000Y-95440843D01*
X164230315Y-95507882D01*
X164204021Y-95537221D01*
X159034121Y-99722378D01*
X158969629Y-99749260D01*
X158956100Y-99750000D01*
X154351432Y-99750000D01*
X154284393Y-99730315D01*
X154238638Y-99677511D01*
X154229893Y-99650581D01*
X149745348Y-77476999D01*
X149735682Y-77462858D01*
X149733698Y-77393016D01*
X149743135Y-77368263D01*
X149823041Y-77211439D01*
X149884424Y-77022523D01*
X149884424Y-77022520D01*
X149915500Y-76826321D01*
X149915500Y-76627678D01*
X149884424Y-76431479D01*
X149884424Y-76431476D01*
X149823042Y-76242562D01*
X149732858Y-76065567D01*
X149705768Y-76028283D01*
X149091147Y-76642904D01*
X149067708Y-76555429D01*
X149009189Y-76454070D01*
X148926430Y-76371311D01*
X148825071Y-76312792D01*
X148737593Y-76289352D01*
X149352215Y-75674730D01*
X149314932Y-75647641D01*
X149158168Y-75567765D01*
X149107372Y-75519790D01*
X149090577Y-75451969D01*
X149113115Y-75385834D01*
X149158167Y-75346796D01*
X149315194Y-75266787D01*
X149475964Y-75149981D01*
X149616481Y-75009464D01*
X149698015Y-74897241D01*
X149720853Y-74873317D01*
X150466035Y-74277172D01*
X150530681Y-74250664D01*
X150543497Y-74250000D01*
X162948638Y-74250000D01*
X163015677Y-74269685D01*
G37*
%TD.AperFunction*%
%TD*%
%TA.AperFunction,Conductor*%
%TO.N,GND*%
G36*
X141529495Y-70769685D02*
G01*
X141531239Y-70770826D01*
X147508495Y-74755664D01*
X147550196Y-74802541D01*
X147573713Y-74848694D01*
X147690519Y-75009464D01*
X147831036Y-75149981D01*
X147991806Y-75266787D01*
X148078649Y-75311035D01*
X148168867Y-75357005D01*
X148168870Y-75357006D01*
X148195375Y-75365618D01*
X148253051Y-75405055D01*
X148280249Y-75469414D01*
X148268334Y-75538260D01*
X148221090Y-75589736D01*
X148195377Y-75601479D01*
X148188258Y-75603792D01*
X148018266Y-75690407D01*
X147990578Y-75710524D01*
X147990578Y-75710525D01*
X148294473Y-76014420D01*
X148000000Y-76250000D01*
X148044263Y-76471316D01*
X147637025Y-76064078D01*
X147637024Y-76064078D01*
X147616907Y-76091766D01*
X147530293Y-76261755D01*
X147471343Y-76443187D01*
X147441500Y-76631608D01*
X147441500Y-76822391D01*
X147471343Y-77010812D01*
X147530293Y-77192244D01*
X147595238Y-77319705D01*
X147608134Y-77388374D01*
X147581858Y-77453115D01*
X147524751Y-77493372D01*
X147484753Y-77500000D01*
X145799600Y-77500000D01*
X145732561Y-77480315D01*
X145714083Y-77465793D01*
X140500000Y-72500000D01*
X124894433Y-72500000D01*
X124827394Y-72480315D01*
X124781639Y-72427511D01*
X124771960Y-72395399D01*
X124765486Y-72354532D01*
X124761246Y-72327757D01*
X124695557Y-72125588D01*
X124599051Y-71936184D01*
X124599049Y-71936181D01*
X124599048Y-71936179D01*
X124474109Y-71764213D01*
X124323786Y-71613890D01*
X124151820Y-71488951D01*
X123962414Y-71392444D01*
X123962413Y-71392443D01*
X123962412Y-71392443D01*
X123760243Y-71326754D01*
X123760241Y-71326753D01*
X123760240Y-71326753D01*
X123598957Y-71301208D01*
X123550287Y-71293500D01*
X123337713Y-71293500D01*
X123289042Y-71301208D01*
X123127760Y-71326753D01*
X122925585Y-71392444D01*
X122736179Y-71488951D01*
X122564213Y-71613890D01*
X122413890Y-71764213D01*
X122288949Y-71936182D01*
X122256145Y-72000563D01*
X122208170Y-72051358D01*
X122140349Y-72068153D01*
X122074214Y-72045615D01*
X122035176Y-72000561D01*
X122015861Y-71962652D01*
X121895582Y-71797105D01*
X121895582Y-71797104D01*
X121750895Y-71652417D01*
X121585349Y-71532140D01*
X121403029Y-71439244D01*
X121208413Y-71376009D01*
X121154000Y-71367390D01*
X121154000Y-72210988D01*
X121096993Y-72178075D01*
X120969826Y-72144000D01*
X120838174Y-72144000D01*
X120711007Y-72178075D01*
X120654000Y-72210988D01*
X120654000Y-71367390D01*
X120599586Y-71376009D01*
X120404970Y-71439244D01*
X120222650Y-71532140D01*
X120057105Y-71652417D01*
X120057104Y-71652417D01*
X119912417Y-71797104D01*
X119912417Y-71797105D01*
X119792140Y-71962650D01*
X119699244Y-72144970D01*
X119636009Y-72339586D01*
X119627391Y-72394000D01*
X120470988Y-72394000D01*
X120438075Y-72451007D01*
X120404000Y-72578174D01*
X120404000Y-72709826D01*
X120438075Y-72836993D01*
X120470988Y-72894000D01*
X119627391Y-72894000D01*
X119636009Y-72948413D01*
X119699244Y-73143029D01*
X119792140Y-73325349D01*
X119912417Y-73490894D01*
X119912417Y-73490895D01*
X120057104Y-73635582D01*
X120222650Y-73755859D01*
X120404968Y-73848754D01*
X120599578Y-73911988D01*
X120654000Y-73920607D01*
X120654000Y-73077012D01*
X120711007Y-73109925D01*
X120838174Y-73144000D01*
X120969826Y-73144000D01*
X121096993Y-73109925D01*
X121154000Y-73077012D01*
X121154000Y-73920606D01*
X121208421Y-73911988D01*
X121403031Y-73848754D01*
X121585349Y-73755859D01*
X121750894Y-73635582D01*
X121750895Y-73635582D01*
X121895582Y-73490895D01*
X121895582Y-73490894D01*
X122015859Y-73325349D01*
X122035175Y-73287439D01*
X122083149Y-73236642D01*
X122150969Y-73219846D01*
X122217105Y-73242382D01*
X122256146Y-73287437D01*
X122282983Y-73340108D01*
X122288951Y-73351819D01*
X122413890Y-73523786D01*
X122564213Y-73674109D01*
X122736179Y-73799048D01*
X122736181Y-73799049D01*
X122736184Y-73799051D01*
X122925588Y-73895557D01*
X123127757Y-73961246D01*
X123261002Y-73982350D01*
X123324137Y-74012279D01*
X123358782Y-74064261D01*
X125387741Y-79925698D01*
X125391069Y-79995489D01*
X125356137Y-80055999D01*
X125294036Y-80088018D01*
X125270563Y-80090260D01*
X124785923Y-80090260D01*
X124755513Y-80093111D01*
X124627474Y-80137913D01*
X124518327Y-80218467D01*
X124437773Y-80327614D01*
X124392970Y-80455655D01*
X124392970Y-80455659D01*
X124390120Y-80486053D01*
X124390120Y-80925260D01*
X125161160Y-80925260D01*
X125156017Y-80930403D01*
X125103516Y-81021337D01*
X125076340Y-81122760D01*
X125076340Y-81227760D01*
X125103516Y-81329183D01*
X125156017Y-81420117D01*
X125161160Y-81425260D01*
X124390121Y-81425260D01*
X124390121Y-81864456D01*
X124392971Y-81894866D01*
X124437773Y-82022905D01*
X124518327Y-82132052D01*
X124629984Y-82214458D01*
X124672234Y-82270105D01*
X124677693Y-82339761D01*
X124644626Y-82401311D01*
X124644032Y-82401908D01*
X124608890Y-82437050D01*
X124503833Y-82581647D01*
X124422691Y-82740898D01*
X124422689Y-82740901D01*
X124367460Y-82910878D01*
X124367460Y-82910881D01*
X124339500Y-83087414D01*
X124339500Y-83266145D01*
X124367460Y-83442678D01*
X124367460Y-83442681D01*
X124422689Y-83612658D01*
X124422691Y-83612661D01*
X124503833Y-83771912D01*
X124608890Y-83916509D01*
X124735272Y-84042891D01*
X124779029Y-84074683D01*
X124821694Y-84130014D01*
X124827672Y-84199627D01*
X124795065Y-84261422D01*
X124779029Y-84275317D01*
X124735272Y-84307108D01*
X124608890Y-84433490D01*
X124503833Y-84578087D01*
X124422691Y-84737338D01*
X124422689Y-84737341D01*
X124367460Y-84907318D01*
X124367460Y-84907321D01*
X124339500Y-85083854D01*
X124339500Y-85262585D01*
X124367460Y-85439118D01*
X124367460Y-85439121D01*
X124422689Y-85609098D01*
X124422691Y-85609101D01*
X124503833Y-85768352D01*
X124608890Y-85912949D01*
X124735272Y-86039331D01*
X124782525Y-86073663D01*
X124825190Y-86128993D01*
X124831168Y-86198607D01*
X124798561Y-86260402D01*
X124782525Y-86274297D01*
X124735272Y-86308628D01*
X124608890Y-86435010D01*
X124503833Y-86579607D01*
X124422691Y-86738858D01*
X124422689Y-86738861D01*
X124367460Y-86908838D01*
X124367460Y-86908841D01*
X124339500Y-87085374D01*
X124339500Y-87264105D01*
X124367460Y-87440638D01*
X124367460Y-87440641D01*
X124422689Y-87610618D01*
X124422691Y-87610621D01*
X124503833Y-87769872D01*
X124608889Y-87914468D01*
X124735272Y-88040851D01*
X124879868Y-88145907D01*
X125039119Y-88227049D01*
X125039121Y-88227050D01*
X125197670Y-88278565D01*
X125209103Y-88282280D01*
X125385634Y-88310240D01*
X125385647Y-88310240D01*
X125385711Y-88310245D01*
X125385742Y-88310257D01*
X125390446Y-88311002D01*
X125390289Y-88311989D01*
X125451003Y-88335119D01*
X125492482Y-88391344D01*
X125500000Y-88433864D01*
X125500000Y-96671410D01*
X125480315Y-96738449D01*
X125427511Y-96784204D01*
X125358353Y-96794148D01*
X125294797Y-96765123D01*
X125275682Y-96744296D01*
X125235583Y-96689105D01*
X125090895Y-96544417D01*
X124925349Y-96424140D01*
X124743029Y-96331244D01*
X124548413Y-96268009D01*
X124494000Y-96259390D01*
X124494000Y-97102988D01*
X124436993Y-97070075D01*
X124309826Y-97036000D01*
X124178174Y-97036000D01*
X124051007Y-97070075D01*
X123994000Y-97102988D01*
X123994000Y-96259390D01*
X123939586Y-96268009D01*
X123744970Y-96331244D01*
X123562650Y-96424140D01*
X123397105Y-96544417D01*
X123397104Y-96544417D01*
X123252417Y-96689104D01*
X123252417Y-96689105D01*
X123132140Y-96854650D01*
X123039244Y-97036970D01*
X122976009Y-97231586D01*
X122967391Y-97286000D01*
X123810988Y-97286000D01*
X123778075Y-97343007D01*
X123744000Y-97470174D01*
X123744000Y-97601826D01*
X123778075Y-97728993D01*
X123810988Y-97786000D01*
X122967391Y-97786000D01*
X122976009Y-97840413D01*
X123039244Y-98035029D01*
X123132140Y-98217349D01*
X123252417Y-98382894D01*
X123252417Y-98382895D01*
X123397104Y-98527582D01*
X123562650Y-98647859D01*
X123744968Y-98740754D01*
X123939578Y-98803988D01*
X123994000Y-98812607D01*
X123994000Y-97969012D01*
X124051007Y-98001925D01*
X124178174Y-98036000D01*
X124309826Y-98036000D01*
X124436993Y-98001925D01*
X124494000Y-97969012D01*
X124494000Y-98812606D01*
X124548421Y-98803988D01*
X124743031Y-98740754D01*
X124925349Y-98647859D01*
X125090894Y-98527582D01*
X125107686Y-98510791D01*
X125169008Y-98477304D01*
X125238700Y-98482287D01*
X125294634Y-98524157D01*
X125319053Y-98589621D01*
X125314363Y-98633348D01*
X122743494Y-107404548D01*
X122705748Y-107463344D01*
X122642206Y-107492399D01*
X122573043Y-107482489D01*
X122520217Y-107436760D01*
X122501428Y-107372886D01*
X122500765Y-107372930D01*
X122500571Y-107369971D01*
X122500500Y-107369730D01*
X122500500Y-107368886D01*
X122500499Y-107368872D01*
X122488119Y-107274842D01*
X122466270Y-107108884D01*
X122398398Y-106855581D01*
X122345294Y-106727376D01*
X122298046Y-106613309D01*
X122298041Y-106613299D01*
X122166924Y-106386196D01*
X122044424Y-106226554D01*
X122007282Y-106178149D01*
X122007281Y-106178148D01*
X122007274Y-106178140D01*
X121821860Y-105992726D01*
X121821851Y-105992718D01*
X121613803Y-105833075D01*
X121386700Y-105701958D01*
X121386690Y-105701953D01*
X121144428Y-105601605D01*
X121144421Y-105601603D01*
X121144419Y-105601602D01*
X120891116Y-105533730D01*
X120833339Y-105526123D01*
X120631127Y-105499500D01*
X120631120Y-105499500D01*
X120368880Y-105499500D01*
X120368872Y-105499500D01*
X120137772Y-105529926D01*
X120108884Y-105533730D01*
X119855581Y-105601602D01*
X119855571Y-105601605D01*
X119613309Y-105701953D01*
X119613299Y-105701958D01*
X119386196Y-105833075D01*
X119178148Y-105992718D01*
X118992718Y-106178148D01*
X118833075Y-106386196D01*
X118701958Y-106613299D01*
X118701953Y-106613309D01*
X118601605Y-106855571D01*
X118601602Y-106855581D01*
X118533730Y-107108885D01*
X118499500Y-107368872D01*
X118499500Y-107631127D01*
X118509396Y-107706289D01*
X118533730Y-107891116D01*
X118588751Y-108096457D01*
X118601602Y-108144418D01*
X118601605Y-108144428D01*
X118701953Y-108386690D01*
X118701958Y-108386700D01*
X118833075Y-108613803D01*
X118992718Y-108821851D01*
X118992726Y-108821860D01*
X119178140Y-109007274D01*
X119178148Y-109007281D01*
X119386196Y-109166924D01*
X119613299Y-109298041D01*
X119613309Y-109298046D01*
X119855571Y-109398394D01*
X119855581Y-109398398D01*
X120108884Y-109466270D01*
X120368880Y-109500500D01*
X120368887Y-109500500D01*
X120631113Y-109500500D01*
X120631120Y-109500500D01*
X120891116Y-109466270D01*
X121144419Y-109398398D01*
X121386697Y-109298043D01*
X121613803Y-109166924D01*
X121821851Y-109007282D01*
X121821855Y-109007277D01*
X121821860Y-109007274D01*
X122007274Y-108821860D01*
X122007279Y-108821854D01*
X122007282Y-108821851D01*
X122122292Y-108671967D01*
X122178717Y-108630767D01*
X122248463Y-108626612D01*
X122309383Y-108660824D01*
X122342136Y-108722541D01*
X122339659Y-108782334D01*
X121691950Y-110992165D01*
X121654204Y-111050961D01*
X121590662Y-111080016D01*
X121521499Y-111070106D01*
X121472638Y-111030173D01*
X121387582Y-110913104D01*
X121242895Y-110768417D01*
X121077349Y-110648140D01*
X120895029Y-110555244D01*
X120700413Y-110492009D01*
X120646000Y-110483390D01*
X120646000Y-111326988D01*
X120588993Y-111294075D01*
X120461826Y-111260000D01*
X120330174Y-111260000D01*
X120203007Y-111294075D01*
X120146000Y-111326988D01*
X120146000Y-110483390D01*
X120091586Y-110492009D01*
X119896970Y-110555244D01*
X119714650Y-110648140D01*
X119549105Y-110768417D01*
X119549104Y-110768417D01*
X119404417Y-110913104D01*
X119404417Y-110913105D01*
X119284140Y-111078650D01*
X119191244Y-111260970D01*
X119128009Y-111455586D01*
X119119391Y-111510000D01*
X119962988Y-111510000D01*
X119930075Y-111567007D01*
X119896000Y-111694174D01*
X119896000Y-111825826D01*
X119930075Y-111952993D01*
X119962988Y-112010000D01*
X119119391Y-112010000D01*
X119128009Y-112064413D01*
X119191244Y-112259029D01*
X119222160Y-112319705D01*
X119235056Y-112388374D01*
X119208780Y-112453115D01*
X119151673Y-112493372D01*
X119111675Y-112500000D01*
X119078971Y-112500000D01*
X119011932Y-112480315D01*
X118966604Y-112428438D01*
X118947907Y-112388374D01*
X118058915Y-110483390D01*
X117261633Y-108774927D01*
X117250000Y-108722489D01*
X117250000Y-91857872D01*
X118499500Y-91857872D01*
X118499500Y-92120127D01*
X118520436Y-92279140D01*
X118533730Y-92380116D01*
X118598831Y-92623076D01*
X118601602Y-92633418D01*
X118601605Y-92633428D01*
X118701953Y-92875690D01*
X118701958Y-92875700D01*
X118833075Y-93102803D01*
X118992718Y-93310851D01*
X118992726Y-93310860D01*
X119178140Y-93496274D01*
X119178148Y-93496281D01*
X119386196Y-93655924D01*
X119613299Y-93787041D01*
X119613309Y-93787046D01*
X119855571Y-93887394D01*
X119855581Y-93887398D01*
X120108884Y-93955270D01*
X120368880Y-93989500D01*
X120368887Y-93989500D01*
X120631113Y-93989500D01*
X120631120Y-93989500D01*
X120891116Y-93955270D01*
X121144419Y-93887398D01*
X121386697Y-93787043D01*
X121613803Y-93655924D01*
X121821851Y-93496282D01*
X121821855Y-93496277D01*
X121821860Y-93496274D01*
X122007274Y-93310860D01*
X122007277Y-93310855D01*
X122007282Y-93310851D01*
X122166924Y-93102803D01*
X122298043Y-92875697D01*
X122398398Y-92633419D01*
X122466270Y-92380116D01*
X122500500Y-92120120D01*
X122500500Y-91857880D01*
X122466270Y-91597884D01*
X122398398Y-91344581D01*
X122345294Y-91216376D01*
X122298046Y-91102309D01*
X122298041Y-91102299D01*
X122166924Y-90875196D01*
X122007281Y-90667148D01*
X122007274Y-90667140D01*
X121821860Y-90481726D01*
X121821851Y-90481718D01*
X121613803Y-90322075D01*
X121386700Y-90190958D01*
X121386690Y-90190953D01*
X121144428Y-90090605D01*
X121144421Y-90090603D01*
X121144419Y-90090602D01*
X120891116Y-90022730D01*
X120833339Y-90015123D01*
X120631127Y-89988500D01*
X120631120Y-89988500D01*
X120368880Y-89988500D01*
X120368872Y-89988500D01*
X120137772Y-90018926D01*
X120108884Y-90022730D01*
X119862702Y-90088694D01*
X119855581Y-90090602D01*
X119855571Y-90090605D01*
X119613309Y-90190953D01*
X119613299Y-90190958D01*
X119386196Y-90322075D01*
X119178148Y-90481718D01*
X118992718Y-90667148D01*
X118833075Y-90875196D01*
X118701958Y-91102299D01*
X118701953Y-91102309D01*
X118601605Y-91344571D01*
X118601602Y-91344581D01*
X118538833Y-91578842D01*
X118533730Y-91597885D01*
X118499500Y-91857872D01*
X117250000Y-91857872D01*
X117250000Y-76346872D01*
X118499500Y-76346872D01*
X118499500Y-76609127D01*
X118520436Y-76768140D01*
X118533730Y-76869116D01*
X118598831Y-77112076D01*
X118601602Y-77122418D01*
X118601605Y-77122428D01*
X118701953Y-77364690D01*
X118701958Y-77364700D01*
X118833075Y-77591803D01*
X118992718Y-77799851D01*
X118992726Y-77799860D01*
X119178140Y-77985274D01*
X119178148Y-77985281D01*
X119178149Y-77985282D01*
X119226554Y-78022424D01*
X119386196Y-78144924D01*
X119613299Y-78276041D01*
X119613309Y-78276046D01*
X119855571Y-78376394D01*
X119855581Y-78376398D01*
X120108884Y-78444270D01*
X120368880Y-78478500D01*
X120368887Y-78478500D01*
X120631113Y-78478500D01*
X120631120Y-78478500D01*
X120891116Y-78444270D01*
X121144419Y-78376398D01*
X121386697Y-78276043D01*
X121613803Y-78144924D01*
X121821851Y-77985282D01*
X121821855Y-77985277D01*
X121821860Y-77985274D01*
X122007274Y-77799860D01*
X122007277Y-77799855D01*
X122007282Y-77799851D01*
X122166924Y-77591803D01*
X122298043Y-77364697D01*
X122398398Y-77122419D01*
X122466270Y-76869116D01*
X122500500Y-76609120D01*
X122500500Y-76346880D01*
X122466270Y-76086884D01*
X122398398Y-75833581D01*
X122398394Y-75833571D01*
X122298046Y-75591309D01*
X122298041Y-75591299D01*
X122166924Y-75364196D01*
X122007281Y-75156148D01*
X122007274Y-75156140D01*
X121821860Y-74970726D01*
X121821851Y-74970718D01*
X121613803Y-74811075D01*
X121386700Y-74679958D01*
X121386690Y-74679953D01*
X121144428Y-74579605D01*
X121144421Y-74579603D01*
X121144419Y-74579602D01*
X120891116Y-74511730D01*
X120833339Y-74504123D01*
X120631127Y-74477500D01*
X120631120Y-74477500D01*
X120368880Y-74477500D01*
X120368872Y-74477500D01*
X120137772Y-74507926D01*
X120108884Y-74511730D01*
X119855581Y-74579602D01*
X119855571Y-74579605D01*
X119613309Y-74679953D01*
X119613299Y-74679958D01*
X119386196Y-74811075D01*
X119178148Y-74970718D01*
X118992718Y-75156148D01*
X118833075Y-75364196D01*
X118701958Y-75591299D01*
X118701953Y-75591309D01*
X118601605Y-75833571D01*
X118601602Y-75833581D01*
X118533730Y-76086885D01*
X118499500Y-76346872D01*
X117250000Y-76346872D01*
X117250000Y-73055224D01*
X117269685Y-72988185D01*
X117291045Y-72963059D01*
X119714631Y-70781831D01*
X119777630Y-70751616D01*
X119797583Y-70750000D01*
X141462456Y-70750000D01*
X141529495Y-70769685D01*
G37*
%TD.AperFunction*%
%TD*%
M02*
