%TF.GenerationSoftware,KiCad,Pcbnew,10.0.3*%
%TF.CreationDate,2026-07-03T13:14:46+02:00*%
%TF.ProjectId,fab26_cablebot,66616232-365f-4636-9162-6c65626f742e,rev?*%
%TF.SameCoordinates,Original*%
%TF.FileFunction,Copper,L1,Top*%
%TF.FilePolarity,Positive*%
%FSLAX46Y46*%
G04 Gerber Fmt 4.6, Leading zero omitted, Abs format (unit mm)*
G04 Created by KiCad (PCBNEW 10.0.3) date 2026-07-03 13:14:46*
%MOMM*%
%LPD*%
G01*
G04 APERTURE LIST*
G04 Aperture macros list*
%AMRoundRect*
0 Rectangle with rounded corners*
0 $1 Rounding radius*
0 $2 $3 $4 $5 $6 $7 $8 $9 X,Y pos of 4 corners*
0 Add a 4 corners polygon primitive as box body*
4,1,4,$2,$3,$4,$5,$6,$7,$8,$9,$2,$3,0*
0 Add four circle primitives for the rounded corners*
1,1,$1+$1,$2,$3*
1,1,$1+$1,$4,$5*
1,1,$1+$1,$6,$7*
1,1,$1+$1,$8,$9*
0 Add four rect primitives between the rounded corners*
20,1,$1+$1,$2,$3,$4,$5,0*
20,1,$1+$1,$4,$5,$6,$7,0*
20,1,$1+$1,$6,$7,$8,$9,0*
20,1,$1+$1,$8,$9,$2,$3,0*%
G04 Aperture macros list end*
%TA.AperFunction,SMDPad,CuDef*%
%ADD10R,1.600000X1.200000*%
%TD*%
%TA.AperFunction,SMDPad,CuDef*%
%ADD11R,1.500000X2.000000*%
%TD*%
%TA.AperFunction,SMDPad,CuDef*%
%ADD12R,3.800000X2.000000*%
%TD*%
%TA.AperFunction,SMDPad,CuDef*%
%ADD13RoundRect,0.152400X1.063600X0.609600X-1.063600X0.609600X-1.063600X-0.609600X1.063600X-0.609600X0*%
%TD*%
%TA.AperFunction,ComponentPad*%
%ADD14C,1.524000*%
%TD*%
%TA.AperFunction,SMDPad,CuDef*%
%ADD15RoundRect,0.152400X-1.063600X-0.609600X1.063600X-0.609600X1.063600X0.609600X-1.063600X0.609600X0*%
%TD*%
%TA.AperFunction,ComponentPad*%
%ADD16O,1.700000X1.700000*%
%TD*%
%TA.AperFunction,SMDPad,CuDef*%
%ADD17R,1.200000X1.600000*%
%TD*%
%TA.AperFunction,SMDPad,CuDef*%
%ADD18R,1.600000X0.600000*%
%TD*%
%TA.AperFunction,SMDPad,CuDef*%
%ADD19R,2.700000X2.900000*%
%TD*%
%TA.AperFunction,SMDPad,CuDef*%
%ADD20R,2.000000X2.500000*%
%TD*%
%TA.AperFunction,SMDPad,CuDef*%
%ADD21R,1.700000X1.400000*%
%TD*%
%TA.AperFunction,ComponentPad*%
%ADD22C,0.950000*%
%TD*%
%TA.AperFunction,SMDPad,CuDef*%
%ADD23R,1.200000X1.000000*%
%TD*%
%TA.AperFunction,SMDPad,CuDef*%
%ADD24R,3.000000X1.000000*%
%TD*%
%TA.AperFunction,SMDPad,CuDef*%
%ADD25R,1.800000X1.000000*%
%TD*%
%TA.AperFunction,SMDPad,CuDef*%
%ADD26R,1.500000X0.900000*%
%TD*%
%TA.AperFunction,ComponentPad*%
%ADD27R,1.270000X1.270000*%
%TD*%
%TA.AperFunction,ComponentPad*%
%ADD28C,1.500000*%
%TD*%
%TA.AperFunction,ComponentPad*%
%ADD29C,1.270000*%
%TD*%
%TA.AperFunction,ViaPad*%
%ADD30C,1.600000*%
%TD*%
%TA.AperFunction,Conductor*%
%ADD31C,0.600000*%
%TD*%
G04 APERTURE END LIST*
D10*
%TO.P,R2,1*%
%TO.N,3V3*%
X125730000Y-108736000D03*
%TO.P,R2,2*%
%TO.N,LDR2*%
X125730000Y-111736000D03*
%TD*%
D11*
%TO.P,U2,1,GND_1*%
%TO.N,GND*%
X163308000Y-77724000D03*
%TO.P,U2,2,VO_2*%
%TO.N,Net-(D2-A)*%
X165608000Y-77724000D03*
D12*
X165608000Y-71424000D03*
D11*
%TO.P,U2,3,VI_3*%
%TO.N,PWR*%
X167908000Y-77724000D03*
%TD*%
D13*
%TO.P,U1,1,GPIO2_A0_D0_1*%
%TO.N,LDR1*%
X132578500Y-74187000D03*
D14*
X133413500Y-74187000D03*
D13*
%TO.P,U1,2,GPIO3_A1_D1_2*%
%TO.N,LDR2*%
X132578500Y-76727000D03*
D14*
X133413500Y-76727000D03*
D13*
%TO.P,U1,3,GPIO4_A2_D2_3*%
%TO.N,EXTRA1*%
X132578500Y-79267000D03*
D14*
X133413500Y-79267000D03*
D13*
%TO.P,U1,4,GPIO5_A3_D3_4*%
%TO.N,EXTRA2*%
X132578500Y-81807000D03*
D14*
X133413500Y-81807000D03*
D13*
%TO.P,U1,5,GPIO6_D4_SDA_5*%
%TO.N,SDA*%
X132578500Y-84347000D03*
D14*
X133413500Y-84347000D03*
D13*
%TO.P,U1,6,GPIO7_D5_SCL_6*%
%TO.N,SCL*%
X132578500Y-86887000D03*
D14*
X133413500Y-86887000D03*
D13*
%TO.P,U1,7,GPIO21_D6_TX_7*%
%TO.N,BUZZER*%
X132578500Y-89427000D03*
D14*
X133413500Y-89427000D03*
%TO.P,U1,8,GPIO20_D7_RX_8*%
%TO.N,NPX*%
X148653500Y-89427000D03*
D15*
X149488500Y-89427000D03*
D14*
%TO.P,U1,9,GPIO8_D8_SCK_9*%
%TO.N,SERVO*%
X148653500Y-86887000D03*
D15*
X149488500Y-86887000D03*
D14*
%TO.P,U1,10,GPIO9_D9_MISO_10*%
%TO.N,DRVR_IN_1*%
X148653500Y-84347000D03*
D15*
X149488500Y-84347000D03*
D14*
%TO.P,U1,11,GPIO10_D10_MOSI_11*%
%TO.N,DRVR_IN_2*%
X148653500Y-81807000D03*
D15*
X149488500Y-81807000D03*
D14*
%TO.P,U1,12,3V3_12*%
%TO.N,3V3*%
X148653500Y-79267000D03*
D15*
X149488500Y-79267000D03*
D14*
%TO.P,U1,13,GND_13*%
%TO.N,GND*%
X148653500Y-76727000D03*
D15*
X149488500Y-76727000D03*
D14*
%TO.P,U1,14,VBUS_14*%
%TO.N,5V*%
X148653500Y-74187000D03*
D15*
X149488500Y-74187000D03*
%TD*%
D10*
%TO.P,R3,1*%
%TO.N,PWR*%
X173228000Y-76484000D03*
%TO.P,R3,2*%
%TO.N,Net-(D1-A)*%
X173228000Y-73484000D03*
%TD*%
D16*
%TO.P,J2,1,Pin_1_1*%
%TO.N,LDR2*%
X122936000Y-111760000D03*
%TO.P,J2,2,Pin_2_2*%
%TO.N,GND*%
X120396000Y-111760000D03*
%TD*%
%TO.P,J3,1,Pin_1_1*%
%TO.N,9V*%
X176530000Y-82423000D03*
%TO.P,J3,2,Pin_2_2*%
%TO.N,GND*%
X176530000Y-79883000D03*
%TD*%
D17*
%TO.P,C1,1*%
%TO.N,VREF*%
X157758000Y-90170000D03*
%TO.P,C1,2*%
%TO.N,GND*%
X160758000Y-90170000D03*
%TD*%
D18*
%TO.P,U5,1,GND_1*%
%TO.N,GND*%
X158898000Y-83693000D03*
%TO.P,U5,2,IN2_2*%
%TO.N,DRVR_IN_2*%
X158898000Y-84963000D03*
%TO.P,U5,3,IN1_3*%
%TO.N,DRVR_IN_1*%
X158898000Y-86233000D03*
%TO.P,U5,4,VREF_4*%
%TO.N,VREF*%
X158898000Y-87503000D03*
%TO.P,U5,5,VM_5*%
%TO.N,PWR*%
X164698000Y-87503000D03*
%TO.P,U5,6,OUT1_6*%
%TO.N,MOTOR_A*%
X164698000Y-86233000D03*
%TO.P,U5,7,RS_7*%
%TO.N,CURRENT SENSE*%
X164698000Y-84963000D03*
%TO.P,U5,8,OUT2_8*%
%TO.N,MOTOR_B*%
X164698000Y-83693000D03*
D19*
%TO.P,U5,9,PAD_9*%
%TO.N,GND*%
X161798000Y-85598000D03*
%TD*%
D11*
%TO.P,RV1,1,1_1*%
%TO.N,3V3*%
X157370000Y-98718000D03*
D20*
%TO.P,RV1,2,2_2*%
%TO.N,VREF*%
X156210000Y-93218000D03*
D11*
%TO.P,RV1,3,3_3*%
%TO.N,GND*%
X155060000Y-98718000D03*
%TD*%
D21*
%TO.P,D1,1,K_1*%
%TO.N,GND*%
X176276000Y-76630000D03*
%TO.P,D1,2,A_2*%
%TO.N,Net-(D1-A)*%
X176276000Y-73230000D03*
%TD*%
D10*
%TO.P,C3,1*%
%TO.N,PWR*%
X170688000Y-76454000D03*
%TO.P,C3,2*%
%TO.N,GND*%
X170688000Y-73454000D03*
%TD*%
D16*
%TO.P,J6,1,Pin_1_1*%
%TO.N,GND*%
X130810000Y-112278000D03*
%TO.P,J6,2,Pin_2_2*%
%TO.N,3V3*%
X130810000Y-109738000D03*
%TO.P,J6,3,Pin_3_3*%
%TO.N,SERVO*%
X130810000Y-107198000D03*
%TD*%
D22*
%TO.P,SW1,*%
%TO.N,*%
X178562000Y-90503000D03*
X178562000Y-87503000D03*
D23*
%TO.P,SW1,1,A_1*%
%TO.N,unconnected-(SW1-A-Pad1)*%
X175962000Y-91503000D03*
%TO.P,SW1,2,B_2*%
%TO.N,PWR*%
X175962000Y-89003000D03*
%TO.P,SW1,3,C_3*%
%TO.N,9V*%
X175962000Y-86503000D03*
%TD*%
D24*
%TO.P,C2,1*%
%TO.N,PWR*%
X167446000Y-95123000D03*
%TO.P,C2,2*%
%TO.N,GND*%
X162246000Y-95123000D03*
%TD*%
D10*
%TO.P,R6,1*%
%TO.N,3V3*%
X156500000Y-109500000D03*
%TO.P,R6,2*%
%TO.N,SCL*%
X156500000Y-106500000D03*
%TD*%
D25*
%TO.P,D2,1,A_1*%
%TO.N,Net-(D2-A)*%
X155900000Y-74600000D03*
%TO.P,D2,2*%
%TO.N,N/C*%
X155900000Y-72900000D03*
%TO.P,D2,3,K_3*%
%TO.N,5V*%
X153500000Y-73750000D03*
%TD*%
D10*
%TO.P,R4,1*%
%TO.N,CURRENT SENSE*%
X167373000Y-84900000D03*
%TO.P,R4,2*%
%TO.N,GND*%
X167373000Y-81900000D03*
%TD*%
%TO.P,C4,1*%
%TO.N,Net-(D2-A)*%
X159272000Y-73684000D03*
%TO.P,C4,2*%
%TO.N,GND*%
X159272000Y-76684000D03*
%TD*%
D16*
%TO.P,J4,1,Pin_1_1*%
%TO.N,GND*%
X177463500Y-97282000D03*
%TO.P,J4,2,Pin_2_2*%
%TO.N,NPX_OUT*%
X177463500Y-99822000D03*
%TO.P,J4,3,Pin_3_3*%
%TO.N,3V3*%
X177463500Y-102362000D03*
%TD*%
D26*
%TO.P,U3,1,VDD_1*%
%TO.N,3V3*%
X174198500Y-102996000D03*
%TO.P,U3,2,DOUT_2*%
%TO.N,NPX_OUT*%
X174198500Y-99696000D03*
%TO.P,U3,3,VSS_3*%
%TO.N,GND*%
X169298500Y-99696000D03*
%TO.P,U3,4,DIN_4*%
%TO.N,NPX*%
X169298500Y-102996000D03*
%TD*%
D16*
%TO.P,J5,1,Pin_1_1*%
%TO.N,MOTOR_B*%
X171450000Y-83820000D03*
%TO.P,J5,2,Pin_2_2*%
%TO.N,MOTOR_A*%
X171450000Y-86360000D03*
%TD*%
%TO.P,J8,1,Pin_1_1*%
%TO.N,BUZZER*%
X130813000Y-97536000D03*
%TO.P,J8,2,Pin_2_2*%
%TO.N,GND*%
X124244000Y-97536000D03*
%TD*%
D10*
%TO.P,R1,1*%
%TO.N,3V3*%
X127000000Y-72668000D03*
%TO.P,R1,2*%
%TO.N,LDR1*%
X127000000Y-75668000D03*
%TD*%
D16*
%TO.P,J1,1,Pin_1_1*%
%TO.N,LDR1*%
X123444000Y-72644000D03*
%TO.P,J1,2,Pin_2_2*%
%TO.N,GND*%
X120904000Y-72644000D03*
%TD*%
D10*
%TO.P,R5,1*%
%TO.N,3V3*%
X153500000Y-110500000D03*
%TO.P,R5,2*%
%TO.N,SDA*%
X153500000Y-107500000D03*
%TD*%
D27*
%TO.P,U6,1,GND_1*%
%TO.N,GND*%
X137963880Y-111996000D03*
D28*
%TO.P,U6,2,VDD_2*%
%TO.N,3V3*%
X137964000Y-109994480D03*
%TO.P,U6,3,SDA_3*%
%TO.N,SDA*%
X137964000Y-107998040D03*
%TO.P,U6,4,SCL_4*%
%TO.N,SCL*%
X137964000Y-105996520D03*
%TD*%
D27*
%TO.P,U7,1,GND_1*%
%TO.N,GND*%
X125475120Y-81175260D03*
D29*
%TO.P,U7,2,VDD_2*%
%TO.N,3V3*%
X125475000Y-83176780D03*
%TO.P,U7,3,SDA_3*%
%TO.N,EXTRA1*%
X125475000Y-85173220D03*
%TO.P,U7,4,SCL_4*%
%TO.N,EXTRA2*%
X125475000Y-87174740D03*
%TD*%
D27*
%TO.P,U4,1,GND_1*%
%TO.N,GND*%
X160499880Y-111996000D03*
D28*
%TO.P,U4,2,VDD_2*%
%TO.N,3V3*%
X160500000Y-109994480D03*
%TO.P,U4,3,SDA_3*%
%TO.N,SDA*%
X160500000Y-107998040D03*
%TO.P,U4,4,SCL_4*%
%TO.N,SCL*%
X160500000Y-105996520D03*
%TD*%
D30*
%TO.N,GND*%
X161750000Y-81250000D03*
X153250000Y-76727000D03*
X155000000Y-101000000D03*
%TD*%
%TO.N,3V3*%
D31*
X165752000Y-109994480D02*
X137964000Y-109994480D01*
X128524000Y-105410000D02*
X125730000Y-108204000D01*
X141732000Y-71628000D02*
X145288000Y-75184000D01*
X128246000Y-72668000D02*
X129286000Y-71628000D01*
X128524000Y-98329780D02*
X128524000Y-105410000D01*
X143764000Y-82804000D02*
X143764000Y-91948000D01*
X145288000Y-75184000D02*
X145288000Y-77216000D01*
X137707520Y-109738000D02*
X137964000Y-109994480D01*
X172248000Y-105664000D02*
X174662000Y-103250000D01*
X147339000Y-79267000D02*
X148653500Y-79267000D01*
X125730000Y-108736000D02*
X127000000Y-108736000D01*
X159998000Y-101346000D02*
X172548500Y-101346000D01*
X123900000Y-83540740D02*
X123900000Y-93705780D01*
X137922000Y-97790000D02*
X137922000Y-97814000D01*
X127786000Y-108736000D02*
X128788000Y-109738000D01*
X170434000Y-105664000D02*
X172248000Y-105664000D01*
X127000000Y-72668000D02*
X128246000Y-72668000D01*
X129286000Y-71628000D02*
X141732000Y-71628000D01*
X128788000Y-109738000D02*
X130810000Y-109738000D01*
X174662000Y-103250000D02*
X177293000Y-103250000D01*
X125730000Y-108204000D02*
X125730000Y-108736000D01*
X145288000Y-77216000D02*
X147339000Y-79267000D01*
X145288000Y-81318000D02*
X145250000Y-81318000D01*
X157370000Y-98718000D02*
X159998000Y-101346000D01*
X143764000Y-91948000D02*
X137922000Y-97790000D01*
X145250000Y-81318000D02*
X143764000Y-82804000D01*
X172548500Y-101346000D02*
X174198500Y-102996000D01*
X165752000Y-109994480D02*
X166103520Y-109994480D01*
X130810000Y-109738000D02*
X137707520Y-109738000D01*
X137922000Y-97814000D02*
X127000000Y-108736000D01*
X147339000Y-79267000D02*
X145288000Y-81318000D01*
X125499880Y-83001520D02*
X124439220Y-83001520D01*
X148272500Y-79267000D02*
X148653500Y-79267000D01*
X127000000Y-108736000D02*
X127786000Y-108736000D01*
X166103520Y-109994480D02*
X170434000Y-105664000D01*
X123900000Y-93705780D02*
X128524000Y-98329780D01*
X176829500Y-102996000D02*
X177463500Y-102362000D01*
X124439220Y-83001520D02*
X123900000Y-83540740D01*
%TO.N,LDR2*%
X122936000Y-111760000D02*
X125706000Y-111760000D01*
X125706000Y-111760000D02*
X125730000Y-111736000D01*
%TO.N,GND*%
X172768000Y-71374000D02*
X177165000Y-71374000D01*
X163308000Y-77724000D02*
X163308000Y-76124000D01*
X160758000Y-90170000D02*
X160758000Y-94270000D01*
X160758000Y-86638000D02*
X161798000Y-85598000D01*
X129778000Y-113310000D02*
X130810000Y-112278000D01*
X137963880Y-111996000D02*
X160499880Y-111996000D01*
X160758000Y-94270000D02*
X161738000Y-95250000D01*
X169466000Y-74676000D02*
X170688000Y-73454000D01*
X163308000Y-77724000D02*
X160312000Y-77724000D01*
X158496000Y-95250000D02*
X161738000Y-95250000D01*
X155060000Y-98718000D02*
X155060000Y-100940000D01*
X176276000Y-79629000D02*
X176530000Y-79883000D01*
X155060000Y-98718000D02*
X155060000Y-97118000D01*
X169298500Y-99696000D02*
X171712500Y-97282000D01*
X161798000Y-85598000D02*
X159893000Y-83693000D01*
X157988000Y-95758000D02*
X158496000Y-95250000D01*
X120396000Y-111760000D02*
X121946000Y-113310000D01*
X176276000Y-76630000D02*
X176276000Y-79629000D01*
X121946000Y-113310000D02*
X129778000Y-113310000D01*
X160758000Y-90170000D02*
X160758000Y-86638000D01*
X178054000Y-74852000D02*
X176276000Y-76630000D01*
X170688000Y-73454000D02*
X172768000Y-71374000D01*
X178054000Y-72263000D02*
X178054000Y-74852000D01*
X158898000Y-83693000D02*
X159307000Y-83693000D01*
X164756000Y-74676000D02*
X169466000Y-74676000D01*
X177165000Y-71374000D02*
X178054000Y-72263000D01*
X169298500Y-99696000D02*
X166819000Y-99696000D01*
X120396000Y-111760000D02*
X120260000Y-111760000D01*
X155060000Y-97118000D02*
X156420000Y-95758000D01*
X120904000Y-72644000D02*
X121000000Y-72740000D01*
X171712500Y-97282000D02*
X177463500Y-97282000D01*
X154964000Y-76684000D02*
X159272000Y-76684000D01*
X163308000Y-76124000D02*
X164756000Y-74676000D01*
X156420000Y-95758000D02*
X157988000Y-95758000D01*
X159307000Y-83693000D02*
X161750000Y-81250000D01*
X155060000Y-100940000D02*
X155000000Y-101000000D01*
X160312000Y-77724000D02*
X159272000Y-76684000D01*
X149488500Y-76727000D02*
X154921000Y-76727000D01*
X161738000Y-95250000D02*
X161738000Y-95310000D01*
X137681880Y-112278000D02*
X137963880Y-111996000D01*
X130810000Y-112278000D02*
X137681880Y-112278000D01*
X166819000Y-99696000D02*
X162246000Y-95123000D01*
X154921000Y-76727000D02*
X154964000Y-76684000D01*
%TO.N,Net-(D2-A)*%
X155900000Y-74600000D02*
X158356000Y-74600000D01*
X158356000Y-74600000D02*
X159272000Y-73684000D01*
X159272000Y-73684000D02*
X163348000Y-73684000D01*
X163348000Y-73684000D02*
X165608000Y-71424000D01*
%TO.N,PWR*%
X166997000Y-87503000D02*
X167000000Y-87500000D01*
X164698000Y-87503000D02*
X166997000Y-87503000D01*
X173863000Y-77119000D02*
X173228000Y-76484000D01*
X175962000Y-89003000D02*
X173863000Y-86904000D01*
X170688000Y-76454000D02*
X173198000Y-76454000D01*
X173863000Y-86904000D02*
X173863000Y-77119000D01*
X169178000Y-76454000D02*
X167908000Y-77724000D01*
X173198000Y-76454000D02*
X173228000Y-76484000D01*
X170688000Y-76454000D02*
X169178000Y-76454000D01*
%TO.N,LDR1*%
X123976000Y-72644000D02*
X127000000Y-75668000D01*
X127000000Y-75668000D02*
X128481000Y-74187000D01*
X128481000Y-74187000D02*
X132578500Y-74187000D01*
X123444000Y-72644000D02*
X123976000Y-72644000D01*
%TO.N,EXTRA1*%
X125554050Y-84997960D02*
X125499880Y-84997960D01*
X130163220Y-79267000D02*
X128624740Y-80805480D01*
X128624740Y-81927270D02*
X125554050Y-84997960D01*
X132578500Y-79267000D02*
X130163220Y-79267000D01*
X128624740Y-80805480D02*
X128624740Y-81927270D01*
%TO.N,EXTRA2*%
X132578500Y-81807000D02*
X131193000Y-81807000D01*
X131193000Y-81807000D02*
X126000520Y-86999480D01*
X126000520Y-86999480D02*
X125499880Y-86999480D01*
%TO.N,SDA*%
X137964000Y-107998040D02*
X160500000Y-107998040D01*
%TO.N,SCL*%
X137964000Y-105996520D02*
X160500000Y-105996520D01*
X133413500Y-86887000D02*
X133526500Y-87000000D01*
%TO.N,BUZZER*%
X132318000Y-89427000D02*
X133413500Y-89427000D01*
X130813000Y-97536000D02*
X132578500Y-95770500D01*
X132578500Y-95770500D02*
X132578500Y-89427000D01*
%TO.N,NPX*%
X151130000Y-99822000D02*
X151130000Y-91068500D01*
X169761000Y-103251000D02*
X169762000Y-103250000D01*
X151130000Y-91068500D02*
X149488500Y-89427000D01*
X169298500Y-102996000D02*
X154304000Y-102996000D01*
X154304000Y-102996000D02*
X151130000Y-99822000D01*
%TO.N,SERVO*%
X147555000Y-86887000D02*
X146558000Y-87884000D01*
X148653500Y-86887000D02*
X147555000Y-86887000D01*
X146558000Y-87884000D02*
X146558000Y-94742000D01*
X140472000Y-97536000D02*
X130810000Y-107198000D01*
X143764000Y-97536000D02*
X140472000Y-97536000D01*
X146558000Y-94742000D02*
X143764000Y-97536000D01*
%TO.N,DRVR_IN_1*%
X155829000Y-86233000D02*
X158898000Y-86233000D01*
X149488500Y-84347000D02*
X153943000Y-84347000D01*
X153943000Y-84347000D02*
X155829000Y-86233000D01*
%TO.N,DRVR_IN_2*%
X154512000Y-81807000D02*
X157668000Y-84963000D01*
X157668000Y-84963000D02*
X158898000Y-84963000D01*
X149488500Y-81807000D02*
X154512000Y-81807000D01*
%TO.N,5V*%
X149488500Y-74187000D02*
X153063000Y-74187000D01*
X153063000Y-74187000D02*
X153500000Y-73750000D01*
%TO.N,Net-(D1-A)*%
X173228000Y-73484000D02*
X176022000Y-73484000D01*
X176022000Y-73484000D02*
X176276000Y-73230000D01*
%TO.N,9V*%
X176530000Y-82423000D02*
X176530000Y-85935000D01*
X176530000Y-85935000D02*
X175962000Y-86503000D01*
%TO.N,VREF*%
X157758000Y-91670000D02*
X156210000Y-93218000D01*
X157758000Y-90170000D02*
X157758000Y-88643000D01*
X157758000Y-90170000D02*
X157758000Y-91670000D01*
X157758000Y-88643000D02*
X158898000Y-87503000D01*
%TO.N,MOTOR_A*%
X164698000Y-86233000D02*
X171323000Y-86233000D01*
X171323000Y-86233000D02*
X171450000Y-86360000D01*
%TO.N,CURRENT SENSE*%
X167310000Y-84963000D02*
X167373000Y-84900000D01*
X164698000Y-84963000D02*
X167310000Y-84963000D01*
%TO.N,MOTOR_B*%
X165079000Y-83312000D02*
X170942000Y-83312000D01*
X170942000Y-83312000D02*
X171450000Y-83820000D01*
X164698000Y-83693000D02*
X165079000Y-83312000D01*
%TO.N,NPX_OUT*%
X177337500Y-99696000D02*
X177463500Y-99822000D01*
X174198500Y-99696000D02*
X177337500Y-99696000D01*
%TD*%
%TA.AperFunction,Conductor*%
%TO.N,GND*%
G36*
X163195000Y-87630000D02*
G01*
X160401000Y-87630000D01*
X160401000Y-82804000D01*
X163195000Y-82804000D01*
X163195000Y-87630000D01*
G37*
%TD.AperFunction*%
%TD*%
%TA.AperFunction,Conductor*%
%TO.N,PWR*%
G36*
X173700117Y-85603021D02*
G01*
X173724915Y-85610303D01*
X173738553Y-85618601D01*
X173751810Y-85621795D01*
X173779582Y-85643563D01*
X173842772Y-85709625D01*
X173968991Y-85841581D01*
X174814786Y-86725822D01*
X174835302Y-86754536D01*
X174847625Y-86778348D01*
X174861500Y-86835342D01*
X174861500Y-87050867D01*
X174861550Y-87051574D01*
X174861731Y-87053019D01*
X174867907Y-87110482D01*
X174872993Y-87124117D01*
X174918202Y-87245328D01*
X174918203Y-87245330D01*
X174918204Y-87245332D01*
X174918205Y-87245333D01*
X175004450Y-87360542D01*
X175004452Y-87360544D01*
X175004455Y-87360547D01*
X175119664Y-87446793D01*
X175119671Y-87446797D01*
X175164618Y-87463561D01*
X175254517Y-87497091D01*
X175314127Y-87503500D01*
X175487839Y-87503499D01*
X175519301Y-87508022D01*
X175522770Y-87508520D01*
X175547563Y-87515800D01*
X175602234Y-87549064D01*
X175871344Y-87830405D01*
X175891861Y-87859121D01*
X175897060Y-87869167D01*
X175910391Y-87937754D01*
X175884524Y-88002659D01*
X175827684Y-88043273D01*
X175819522Y-88046113D01*
X175778772Y-88053000D01*
X175307803Y-88053000D01*
X175287529Y-88054900D01*
X175277390Y-88055851D01*
X175149354Y-88100652D01*
X175040207Y-88181207D01*
X174959652Y-88290354D01*
X174914849Y-88418396D01*
X174914475Y-88420599D01*
X174914308Y-88424178D01*
X174912000Y-88448793D01*
X174912000Y-88753000D01*
X175820171Y-88753000D01*
X175855106Y-88758023D01*
X175870104Y-88762427D01*
X175928855Y-88800172D01*
X175928879Y-88800200D01*
X175928882Y-88800202D01*
X175928883Y-88800204D01*
X175930042Y-88801541D01*
X175957518Y-88856402D01*
X175959163Y-88863960D01*
X175962000Y-88890331D01*
X175962000Y-89003000D01*
X176070171Y-89003000D01*
X176105106Y-89008023D01*
X176120104Y-89012427D01*
X176178855Y-89050172D01*
X176178879Y-89050200D01*
X176178882Y-89050202D01*
X176178883Y-89050204D01*
X176180042Y-89051541D01*
X176207518Y-89106402D01*
X176209163Y-89113960D01*
X176212000Y-89140331D01*
X176212000Y-89952999D01*
X176388171Y-89952999D01*
X176423106Y-89958022D01*
X176438104Y-89962426D01*
X176496855Y-90000171D01*
X176496879Y-90000199D01*
X176496882Y-90000201D01*
X176496883Y-90000203D01*
X176498042Y-90001540D01*
X176525518Y-90056401D01*
X176527163Y-90063959D01*
X176530000Y-90090330D01*
X176530000Y-90360670D01*
X176529999Y-90360676D01*
X176530000Y-90360679D01*
X176524975Y-90395614D01*
X176520570Y-90410612D01*
X176482827Y-90469355D01*
X176482792Y-90469385D01*
X176482791Y-90469387D01*
X176482789Y-90469387D01*
X176481458Y-90470542D01*
X176426597Y-90498018D01*
X176419039Y-90499663D01*
X176392668Y-90502500D01*
X175314123Y-90502500D01*
X175312192Y-90502659D01*
X175310545Y-90502885D01*
X175254516Y-90508908D01*
X175119666Y-90559204D01*
X175119665Y-90559205D01*
X175004456Y-90645450D01*
X175004450Y-90645456D01*
X174918205Y-90760665D01*
X174918203Y-90760668D01*
X174867907Y-90895516D01*
X174861501Y-90955116D01*
X174861500Y-90955139D01*
X174861500Y-92050876D01*
X174861659Y-92052806D01*
X174861885Y-92054454D01*
X174867907Y-92110482D01*
X174895690Y-92184971D01*
X174918202Y-92245328D01*
X174918203Y-92245330D01*
X174918204Y-92245332D01*
X174918205Y-92245333D01*
X175004450Y-92360542D01*
X175004453Y-92360545D01*
X175004465Y-92360555D01*
X175119654Y-92446786D01*
X175119657Y-92446788D01*
X175119664Y-92446793D01*
X175119673Y-92446798D01*
X175228476Y-92487378D01*
X175259449Y-92504291D01*
X175270562Y-92512610D01*
X175312434Y-92568543D01*
X175317418Y-92638234D01*
X175317417Y-92638241D01*
X175316410Y-92642869D01*
X175283672Y-92703434D01*
X173027017Y-94999000D01*
X172476990Y-95558511D01*
X172476989Y-95558512D01*
X172454670Y-95581215D01*
X172426601Y-95602604D01*
X172403782Y-95615319D01*
X172343425Y-95631000D01*
X169537830Y-95631000D01*
X169502889Y-95625975D01*
X169487890Y-95621570D01*
X169472902Y-95611940D01*
X169455824Y-95606932D01*
X169429144Y-95583827D01*
X169427957Y-95582458D01*
X169400477Y-95527583D01*
X169398832Y-95520021D01*
X169396000Y-95493668D01*
X169396000Y-95373000D01*
X167587830Y-95373000D01*
X167587825Y-95372999D01*
X167587823Y-95373000D01*
X167552889Y-95367975D01*
X167537890Y-95363570D01*
X167479144Y-95325827D01*
X167479115Y-95325793D01*
X167479114Y-95325793D01*
X167479113Y-95325791D01*
X167477957Y-95324458D01*
X167450477Y-95269583D01*
X167448832Y-95262021D01*
X167446000Y-95235668D01*
X167446000Y-95123000D01*
X167337830Y-95123000D01*
X167337825Y-95122999D01*
X167337823Y-95123000D01*
X167302889Y-95117975D01*
X167287890Y-95113570D01*
X167229144Y-95075827D01*
X167229115Y-95075793D01*
X167229114Y-95075793D01*
X167229113Y-95075791D01*
X167227957Y-95074458D01*
X167200477Y-95019583D01*
X167198832Y-95012021D01*
X167196000Y-94985668D01*
X167196000Y-94873000D01*
X167696000Y-94873000D01*
X169395999Y-94873000D01*
X169395999Y-94568803D01*
X169393148Y-94538393D01*
X169348346Y-94410354D01*
X169267792Y-94301207D01*
X169158645Y-94220653D01*
X169158644Y-94220652D01*
X169030599Y-94175849D01*
X169030601Y-94175849D01*
X169000211Y-94173000D01*
X169000207Y-94173000D01*
X167696000Y-94173000D01*
X167696000Y-94873000D01*
X167196000Y-94873000D01*
X167196000Y-94173000D01*
X165891803Y-94173000D01*
X165891798Y-94173000D01*
X165891781Y-94173001D01*
X165866799Y-94175344D01*
X165861536Y-94175725D01*
X165828367Y-94177416D01*
X165760446Y-94161190D01*
X165759592Y-94160701D01*
X165758430Y-94160035D01*
X165714879Y-94118129D01*
X165711247Y-94112316D01*
X165700013Y-94089368D01*
X164035134Y-89557194D01*
X174912001Y-89557194D01*
X174914850Y-89587603D01*
X174959652Y-89715644D01*
X174959653Y-89715645D01*
X175040207Y-89824792D01*
X175149354Y-89905346D01*
X175277397Y-89950149D01*
X175307788Y-89952999D01*
X175307792Y-89952999D01*
X175711999Y-89952999D01*
X175712000Y-89952998D01*
X175712000Y-89253000D01*
X174912001Y-89253000D01*
X174912001Y-89557194D01*
X164035134Y-89557194D01*
X163968373Y-89375457D01*
X163964414Y-89362547D01*
X163961986Y-89352753D01*
X163962064Y-89350921D01*
X163961514Y-89347828D01*
X163961524Y-89347826D01*
X163959605Y-89340559D01*
X163958262Y-89331216D01*
X163957000Y-89313573D01*
X163957000Y-88394828D01*
X163962023Y-88359892D01*
X163966427Y-88344894D01*
X164004172Y-88286143D01*
X164004200Y-88286118D01*
X164004199Y-88286118D01*
X164005541Y-88284955D01*
X164060420Y-88257476D01*
X164067979Y-88255832D01*
X164094332Y-88252999D01*
X165094446Y-88252999D01*
X165094446Y-88252998D01*
X165094445Y-88252997D01*
X164568735Y-87727288D01*
X164547586Y-87699038D01*
X164542164Y-87689108D01*
X164527311Y-87620838D01*
X164551725Y-87555373D01*
X164607655Y-87513501D01*
X164614857Y-87510814D01*
X164658182Y-87503000D01*
X164982361Y-87503000D01*
X165017293Y-87508021D01*
X165042537Y-87515434D01*
X165095283Y-87546730D01*
X165735532Y-88186979D01*
X165819792Y-88124792D01*
X165900346Y-88015645D01*
X165945149Y-87887604D01*
X165945149Y-87887600D01*
X165945523Y-87885400D01*
X165945691Y-87881818D01*
X165947999Y-87857208D01*
X165947999Y-87175326D01*
X165953021Y-87140394D01*
X165957425Y-87125394D01*
X165958247Y-87124117D01*
X165995170Y-87066644D01*
X165996539Y-87065457D01*
X166051420Y-87037976D01*
X166055759Y-87037032D01*
X166058982Y-87036332D01*
X166085331Y-87033500D01*
X170189006Y-87033500D01*
X170223941Y-87038523D01*
X170245311Y-87044798D01*
X170295506Y-87073615D01*
X170298756Y-87076685D01*
X170303729Y-87082342D01*
X170304089Y-87082573D01*
X170304257Y-87082942D01*
X170313938Y-87093954D01*
X170419890Y-87239785D01*
X170419894Y-87239790D01*
X170570213Y-87390109D01*
X170570216Y-87390111D01*
X170570217Y-87390112D01*
X170742169Y-87515042D01*
X170742200Y-87515060D01*
X170742442Y-87515182D01*
X170931588Y-87611557D01*
X171133757Y-87677246D01*
X171343713Y-87710500D01*
X171343714Y-87710500D01*
X171556286Y-87710500D01*
X171556287Y-87710500D01*
X171766243Y-87677246D01*
X171968412Y-87611557D01*
X172157816Y-87515051D01*
X172189824Y-87491796D01*
X172329786Y-87390109D01*
X172329787Y-87390106D01*
X172329790Y-87390105D01*
X172329792Y-87390104D01*
X172329793Y-87390102D01*
X172329844Y-87390066D01*
X172330605Y-87389290D01*
X172480104Y-87239792D01*
X172480106Y-87239788D01*
X172480109Y-87239786D01*
X172502447Y-87209039D01*
X172600804Y-87073663D01*
X172603057Y-87070559D01*
X172605048Y-87067820D01*
X172605047Y-87067820D01*
X172605051Y-87067816D01*
X172701557Y-86878412D01*
X172767246Y-86676243D01*
X172800500Y-86466287D01*
X172800500Y-86253713D01*
X172767246Y-86043757D01*
X172701557Y-85841588D01*
X172677398Y-85794173D01*
X172666018Y-85760778D01*
X172663455Y-85747129D01*
X172670429Y-85677610D01*
X172713878Y-85622897D01*
X172716611Y-85620971D01*
X172767798Y-85599987D01*
X172769745Y-85599664D01*
X172789998Y-85598000D01*
X173665185Y-85598000D01*
X173700117Y-85603021D01*
G37*
%TD.AperFunction*%
%TD*%
%TA.AperFunction,Conductor*%
%TO.N,GND*%
G36*
X170615797Y-73253799D02*
G01*
X170668485Y-73299687D01*
X170688000Y-73366462D01*
X170688000Y-73562170D01*
X170682975Y-73597114D01*
X170678570Y-73612112D01*
X170668939Y-73627101D01*
X170663932Y-73644175D01*
X170640827Y-73670855D01*
X170639458Y-73672042D01*
X170584597Y-73699518D01*
X170577039Y-73701163D01*
X170550668Y-73704000D01*
X169388000Y-73704000D01*
X169388000Y-74101852D01*
X169394400Y-74161370D01*
X169394401Y-74161372D01*
X169394403Y-74161379D01*
X169444645Y-74296086D01*
X169444649Y-74296093D01*
X169451910Y-74305792D01*
X169530807Y-74411185D01*
X169530809Y-74411187D01*
X169530812Y-74411190D01*
X169645906Y-74497350D01*
X169645913Y-74497354D01*
X169780620Y-74547596D01*
X169780627Y-74547598D01*
X169787468Y-74548333D01*
X169840138Y-74553998D01*
X169840155Y-74553999D01*
X169840172Y-74554000D01*
X170343748Y-74554000D01*
X170378680Y-74559021D01*
X170391999Y-74562932D01*
X170450777Y-74600706D01*
X170479803Y-74664261D01*
X170479804Y-74664271D01*
X170480455Y-74668801D01*
X170470507Y-74737959D01*
X170470478Y-74738023D01*
X170229472Y-75264870D01*
X170210367Y-75294554D01*
X170200108Y-75306377D01*
X170185115Y-75316002D01*
X170173464Y-75329442D01*
X170141356Y-75344096D01*
X170130761Y-75347204D01*
X170126389Y-75348486D01*
X170091486Y-75353500D01*
X169840130Y-75353500D01*
X169840128Y-75353500D01*
X169839423Y-75353550D01*
X169837979Y-75353731D01*
X169780516Y-75359907D01*
X169645665Y-75410204D01*
X169645663Y-75410206D01*
X169645661Y-75410207D01*
X169533688Y-75494032D01*
X169533687Y-75494033D01*
X169530456Y-75496452D01*
X169530455Y-75496453D01*
X169530454Y-75496454D01*
X169460529Y-75589861D01*
X169460065Y-75590470D01*
X169459211Y-75591096D01*
X169435814Y-75614493D01*
X169417609Y-75628121D01*
X169365343Y-75650879D01*
X169361767Y-75651525D01*
X169339723Y-75653500D01*
X169099151Y-75653500D01*
X168944514Y-75684259D01*
X168944508Y-75684261D01*
X168944498Y-75684264D01*
X168944493Y-75684265D01*
X168944475Y-75684272D01*
X168798838Y-75744596D01*
X168798820Y-75744605D01*
X168798812Y-75744610D01*
X168798811Y-75744610D01*
X168707000Y-75805958D01*
X168706747Y-75806128D01*
X168706746Y-75806129D01*
X168667962Y-75832042D01*
X168667705Y-75832214D01*
X168325346Y-76174573D01*
X168311941Y-76184608D01*
X168297095Y-76195722D01*
X168274007Y-76208330D01*
X168214577Y-76223500D01*
X167110123Y-76223500D01*
X167108192Y-76223659D01*
X167106545Y-76223885D01*
X167050515Y-76229908D01*
X167050514Y-76229908D01*
X166915672Y-76280201D01*
X166915664Y-76280206D01*
X166846583Y-76331921D01*
X166815608Y-76348835D01*
X166800962Y-76354298D01*
X166731270Y-76359284D01*
X166731266Y-76359283D01*
X166721958Y-76357258D01*
X166674008Y-76335359D01*
X166600330Y-76280203D01*
X166600328Y-76280202D01*
X166465482Y-76229908D01*
X166465483Y-76229908D01*
X166405883Y-76223501D01*
X166405881Y-76223500D01*
X166405873Y-76223500D01*
X166405864Y-76223500D01*
X166404841Y-76223500D01*
X164810123Y-76223500D01*
X164808192Y-76223659D01*
X164806545Y-76223885D01*
X164750515Y-76229908D01*
X164750514Y-76229908D01*
X164615671Y-76280202D01*
X164611930Y-76282605D01*
X164608572Y-76285516D01*
X164546166Y-76332233D01*
X164515191Y-76349147D01*
X164500545Y-76354610D01*
X164482760Y-76355882D01*
X164480702Y-76356650D01*
X164478556Y-76356183D01*
X164430853Y-76359596D01*
X164430849Y-76359595D01*
X164421541Y-76357570D01*
X164373591Y-76335671D01*
X164300088Y-76280646D01*
X164300086Y-76280645D01*
X164298901Y-76280203D01*
X164165377Y-76230402D01*
X164165370Y-76230400D01*
X164105852Y-76224000D01*
X164105844Y-76224000D01*
X163558000Y-76224000D01*
X163558000Y-79224000D01*
X164105828Y-79224000D01*
X164105836Y-79224000D01*
X164105847Y-79223999D01*
X164141560Y-79220158D01*
X164165372Y-79217598D01*
X164165379Y-79217596D01*
X164300086Y-79167354D01*
X164300089Y-79167352D01*
X164369006Y-79115760D01*
X164399967Y-79098854D01*
X164414625Y-79093386D01*
X164484313Y-79088403D01*
X164485752Y-79088716D01*
X164493628Y-79090430D01*
X164541571Y-79112327D01*
X164594138Y-79151678D01*
X164615076Y-79167352D01*
X164615668Y-79167795D01*
X164615671Y-79167797D01*
X164615672Y-79167797D01*
X164615672Y-79167798D01*
X164656451Y-79183007D01*
X164750517Y-79218091D01*
X164750516Y-79218091D01*
X164757444Y-79218835D01*
X164810127Y-79224500D01*
X166405872Y-79224499D01*
X166465483Y-79218091D01*
X166600326Y-79167798D01*
X166600329Y-79167797D01*
X166600329Y-79167796D01*
X166600331Y-79167796D01*
X166669427Y-79116069D01*
X166700391Y-79099163D01*
X166715043Y-79093698D01*
X166784731Y-79088716D01*
X166794039Y-79090741D01*
X166841989Y-79112640D01*
X166915666Y-79167794D01*
X166915669Y-79167796D01*
X166915671Y-79167797D01*
X167050517Y-79218091D01*
X167050516Y-79218091D01*
X167057444Y-79218835D01*
X167110127Y-79224500D01*
X168207244Y-79224499D01*
X168242178Y-79229522D01*
X168255494Y-79233432D01*
X168314272Y-79271207D01*
X168343297Y-79334763D01*
X168343298Y-79334770D01*
X168343949Y-79339300D01*
X168334001Y-79408458D01*
X168333972Y-79408521D01*
X167737991Y-80711367D01*
X167718889Y-80741049D01*
X167708629Y-80752874D01*
X167649869Y-80790597D01*
X167625153Y-80797846D01*
X167625152Y-80797846D01*
X167623000Y-80800000D01*
X167623000Y-80935727D01*
X167611762Y-80987309D01*
X167359762Y-81538194D01*
X167313974Y-81590970D01*
X167246922Y-81610612D01*
X167179895Y-81590885D01*
X167134173Y-81538052D01*
X167123000Y-81486612D01*
X167123000Y-80800000D01*
X166525155Y-80800000D01*
X166525146Y-80800000D01*
X166465628Y-80806400D01*
X166465621Y-80806402D01*
X166330910Y-80856646D01*
X166330907Y-80856648D01*
X166215813Y-80942807D01*
X166215807Y-80942813D01*
X166129648Y-81057907D01*
X166129646Y-81057910D01*
X166079402Y-81192621D01*
X166079400Y-81192628D01*
X166073000Y-81252146D01*
X166073000Y-81650000D01*
X167115535Y-81650000D01*
X167182574Y-81669685D01*
X167228329Y-81722489D01*
X167238273Y-81791647D01*
X167228297Y-81825582D01*
X167113021Y-82077582D01*
X167067233Y-82130358D01*
X167000259Y-82150000D01*
X166073000Y-82150000D01*
X166073000Y-82369670D01*
X166072999Y-82369676D01*
X166073000Y-82369679D01*
X166067975Y-82404614D01*
X166063570Y-82419612D01*
X166025827Y-82478355D01*
X166025792Y-82478385D01*
X166025791Y-82478387D01*
X166025789Y-82478387D01*
X166024458Y-82479542D01*
X165969597Y-82507018D01*
X165962039Y-82508663D01*
X165935668Y-82511500D01*
X165000152Y-82511500D01*
X164845526Y-82542257D01*
X164845492Y-82542265D01*
X164741601Y-82585297D01*
X164741598Y-82585300D01*
X164699818Y-82602605D01*
X164568713Y-82690207D01*
X164568709Y-82690210D01*
X164554893Y-82704026D01*
X164554891Y-82704030D01*
X164415343Y-82843576D01*
X164387093Y-82864724D01*
X164364009Y-82877330D01*
X164304578Y-82892500D01*
X163850123Y-82892500D01*
X163848192Y-82892659D01*
X163846545Y-82892885D01*
X163790516Y-82898908D01*
X163655666Y-82949204D01*
X163655665Y-82949205D01*
X163540456Y-83035450D01*
X163540450Y-83035456D01*
X163454205Y-83150665D01*
X163454203Y-83150668D01*
X163403907Y-83285516D01*
X163397501Y-83345116D01*
X163397500Y-83345139D01*
X163397500Y-83513806D01*
X163397499Y-83513808D01*
X163397500Y-83513809D01*
X163392476Y-83548744D01*
X163388359Y-83562764D01*
X163350584Y-83621541D01*
X163289221Y-83650229D01*
X163276733Y-83652253D01*
X163243639Y-83653139D01*
X163195852Y-83648000D01*
X163195844Y-83648000D01*
X163195000Y-83648000D01*
X163195000Y-82804000D01*
X160401000Y-82804000D01*
X160401000Y-83648000D01*
X160400155Y-83648000D01*
X160400146Y-83648000D01*
X160352983Y-83653071D01*
X160352983Y-83653072D01*
X160352982Y-83653071D01*
X160352982Y-83653072D01*
X160317712Y-83651813D01*
X160303333Y-83649219D01*
X160240853Y-83617945D01*
X160205764Y-83559990D01*
X160202417Y-83547788D01*
X160198000Y-83514987D01*
X160198000Y-83345172D01*
X160197998Y-83345138D01*
X160191598Y-83285628D01*
X160191596Y-83285621D01*
X160191596Y-83285620D01*
X160141354Y-83150913D01*
X160141350Y-83150906D01*
X160141343Y-83150897D01*
X160055193Y-83035817D01*
X160055188Y-83035811D01*
X160055182Y-83035805D01*
X159971438Y-82973113D01*
X159971437Y-82973113D01*
X159971437Y-82973114D01*
X159300479Y-83644073D01*
X159272228Y-83665222D01*
X159249140Y-83677830D01*
X159189710Y-83693000D01*
X158613639Y-83693000D01*
X158578703Y-83687977D01*
X158553461Y-83680565D01*
X158500716Y-83649269D01*
X157824561Y-82973114D01*
X157824560Y-82973114D01*
X157740807Y-83035813D01*
X157654655Y-83150897D01*
X157654646Y-83150910D01*
X157604402Y-83285621D01*
X157604400Y-83285628D01*
X157598000Y-83345146D01*
X157598000Y-83443729D01*
X157592976Y-83478667D01*
X157589789Y-83489520D01*
X157552014Y-83548297D01*
X157488457Y-83577320D01*
X157419307Y-83567379D01*
X157412329Y-83564192D01*
X157376157Y-83539078D01*
X156730079Y-82893000D01*
X158451551Y-82893000D01*
X158898000Y-83339447D01*
X158898001Y-83339447D01*
X159344447Y-82893000D01*
X158451552Y-82893000D01*
X158451551Y-82893000D01*
X156730079Y-82893000D01*
X155022297Y-81185217D01*
X155022291Y-81185212D01*
X155022290Y-81185211D01*
X154891191Y-81097613D01*
X154891190Y-81097612D01*
X154891185Y-81097609D01*
X154891172Y-81097602D01*
X154891165Y-81097598D01*
X154745502Y-81037264D01*
X154745471Y-81037257D01*
X154590847Y-81006500D01*
X154590845Y-81006500D01*
X154590842Y-81006500D01*
X153370203Y-81006500D01*
X153335268Y-81001477D01*
X153308898Y-80993734D01*
X153260541Y-80966617D01*
X151344765Y-79229522D01*
X151258914Y-79151678D01*
X151236409Y-79124492D01*
X151223199Y-79102883D01*
X151205000Y-79038212D01*
X151205000Y-78771852D01*
X162058000Y-78771852D01*
X162064400Y-78831370D01*
X162064402Y-78831377D01*
X162114646Y-78966088D01*
X162114648Y-78966091D01*
X162200807Y-79081185D01*
X162200813Y-79081191D01*
X162220366Y-79095828D01*
X162315906Y-79167350D01*
X162315913Y-79167354D01*
X162450620Y-79217596D01*
X162450627Y-79217598D01*
X162455212Y-79218091D01*
X162510138Y-79223998D01*
X162510155Y-79223999D01*
X162510172Y-79224000D01*
X163058000Y-79224000D01*
X163058000Y-77974000D01*
X162058000Y-77974000D01*
X162058000Y-78771852D01*
X151205000Y-78771852D01*
X151205000Y-78591477D01*
X151205000Y-78591473D01*
X151204999Y-78591458D01*
X151202087Y-78554453D01*
X151202086Y-78554447D01*
X151156065Y-78396045D01*
X151156064Y-78396042D01*
X151156064Y-78396041D01*
X151072092Y-78254053D01*
X151072090Y-78254051D01*
X151072087Y-78254047D01*
X151069148Y-78251108D01*
X151069147Y-78251106D01*
X150955454Y-78137413D01*
X150955448Y-78137408D01*
X150913355Y-78112514D01*
X150913353Y-78112512D01*
X150913351Y-78112512D01*
X150885841Y-78090405D01*
X150876333Y-78080222D01*
X150844972Y-78017786D01*
X150851620Y-77950102D01*
X150853324Y-77945782D01*
X150896233Y-77890642D01*
X150983477Y-77827855D01*
X151071689Y-77739643D01*
X151071696Y-77739634D01*
X151155602Y-77597756D01*
X151155603Y-77597753D01*
X151201588Y-77439473D01*
X151201589Y-77439467D01*
X151204499Y-77402488D01*
X151204500Y-77402473D01*
X151204500Y-77331852D01*
X157972000Y-77331852D01*
X157978400Y-77391370D01*
X157978402Y-77391377D01*
X158028646Y-77526088D01*
X158028648Y-77526091D01*
X158114807Y-77641185D01*
X158114809Y-77641187D01*
X158114812Y-77641190D01*
X158229906Y-77727350D01*
X158229913Y-77727354D01*
X158364620Y-77777596D01*
X158364627Y-77777598D01*
X158371468Y-77778333D01*
X158424138Y-77783998D01*
X158424155Y-77783999D01*
X158424172Y-77784000D01*
X159022000Y-77784000D01*
X159522000Y-77784000D01*
X160119828Y-77784000D01*
X160119836Y-77784000D01*
X160119847Y-77783999D01*
X160155560Y-77780158D01*
X160179372Y-77777598D01*
X160179379Y-77777596D01*
X160314086Y-77727354D01*
X160314093Y-77727350D01*
X160429187Y-77641190D01*
X160429190Y-77641187D01*
X160515350Y-77526093D01*
X160515354Y-77526086D01*
X160565596Y-77391379D01*
X160565598Y-77391372D01*
X160567069Y-77377689D01*
X160571998Y-77331860D01*
X160572000Y-77331827D01*
X160572000Y-76934000D01*
X159522000Y-76934000D01*
X159522000Y-77784000D01*
X159022000Y-77784000D01*
X159022000Y-76934000D01*
X157972000Y-76934000D01*
X157972000Y-77331852D01*
X151204500Y-77331852D01*
X151204500Y-76676146D01*
X162058000Y-76676146D01*
X162058000Y-76676155D01*
X162058000Y-77474000D01*
X163058000Y-77474000D01*
X163058000Y-76224000D01*
X162510146Y-76224000D01*
X162450628Y-76230400D01*
X162450621Y-76230402D01*
X162315910Y-76280646D01*
X162315907Y-76280648D01*
X162200813Y-76366807D01*
X162200807Y-76366813D01*
X162114648Y-76481907D01*
X162114646Y-76481910D01*
X162064402Y-76616621D01*
X162064400Y-76616628D01*
X162058000Y-76676146D01*
X151204500Y-76676146D01*
X151204500Y-76672851D01*
X151204499Y-76100171D01*
X151204596Y-76099500D01*
X151209521Y-76065240D01*
X151213925Y-76050240D01*
X151251693Y-75991469D01*
X151256456Y-75987341D01*
X151320008Y-75958315D01*
X154609720Y-75493837D01*
X154645002Y-75493925D01*
X154671094Y-75497745D01*
X154727442Y-75521169D01*
X154757665Y-75543793D01*
X154757671Y-75543797D01*
X154784657Y-75553862D01*
X154807154Y-75562253D01*
X154842512Y-75588721D01*
X154899444Y-75594835D01*
X154899443Y-75594839D01*
X154899458Y-75594836D01*
X154952127Y-75600500D01*
X156847872Y-75600499D01*
X156907483Y-75594091D01*
X157042331Y-75543796D01*
X157157546Y-75457546D01*
X157157551Y-75457538D01*
X157163820Y-75451272D01*
X157164689Y-75452141D01*
X157177320Y-75439509D01*
X157195528Y-75425879D01*
X157247830Y-75403115D01*
X157251412Y-75402469D01*
X157260460Y-75401659D01*
X157260990Y-75401462D01*
X157261478Y-75401568D01*
X157273420Y-75400500D01*
X158168653Y-75400500D01*
X158203584Y-75405522D01*
X158211367Y-75407807D01*
X158270146Y-75445579D01*
X158299173Y-75509134D01*
X158289232Y-75578293D01*
X158247152Y-75628644D01*
X158231132Y-75639766D01*
X158231131Y-75639765D01*
X158228664Y-75641478D01*
X158228650Y-75641489D01*
X158211411Y-75653457D01*
X158201304Y-75662060D01*
X158114816Y-75726805D01*
X158114810Y-75726810D01*
X158114807Y-75726813D01*
X158028648Y-75841907D01*
X158028646Y-75841910D01*
X157978402Y-75976621D01*
X157978400Y-75976628D01*
X157972000Y-76036146D01*
X157972000Y-76036155D01*
X157972000Y-76434000D01*
X159022000Y-76434000D01*
X159522000Y-76434000D01*
X160572000Y-76434000D01*
X160572000Y-76036172D01*
X160571999Y-76036155D01*
X160571998Y-76036146D01*
X160571998Y-76036138D01*
X160565598Y-75976628D01*
X160565596Y-75976621D01*
X160565596Y-75976620D01*
X160515354Y-75841913D01*
X160515350Y-75841906D01*
X160429190Y-75726812D01*
X160429187Y-75726809D01*
X160429185Y-75726807D01*
X160342694Y-75662060D01*
X160314093Y-75640649D01*
X160314086Y-75640645D01*
X160206448Y-75600499D01*
X160179377Y-75590402D01*
X160179370Y-75590400D01*
X160119852Y-75584000D01*
X160119844Y-75584000D01*
X159522000Y-75584000D01*
X159522000Y-76434000D01*
X159022000Y-76434000D01*
X159022000Y-75584000D01*
X158713441Y-75584000D01*
X158711379Y-75583394D01*
X158709298Y-75583931D01*
X158678505Y-75578977D01*
X158669872Y-75576442D01*
X158654872Y-75566802D01*
X158646402Y-75564315D01*
X158634738Y-75553862D01*
X158611094Y-75538667D01*
X158582070Y-75475110D01*
X158592014Y-75405952D01*
X158632281Y-75356887D01*
X158636445Y-75353885D01*
X158643732Y-75349821D01*
X158645447Y-75347972D01*
X158648425Y-75347204D01*
X158661504Y-75339911D01*
X158728634Y-75312104D01*
X158731418Y-75311134D01*
X158732873Y-75310461D01*
X158737534Y-75308417D01*
X158746793Y-75304581D01*
X158755677Y-75295698D01*
X158811002Y-75258730D01*
X158866289Y-75221789D01*
X159207407Y-74880669D01*
X159235648Y-74859528D01*
X159262391Y-74844925D01*
X159304474Y-74830978D01*
X159620745Y-74786324D01*
X159629395Y-74785411D01*
X159638040Y-74784804D01*
X159646725Y-74784499D01*
X160119871Y-74784499D01*
X160119872Y-74784499D01*
X160179483Y-74778091D01*
X160314331Y-74727796D01*
X160341202Y-74707679D01*
X160368195Y-74692331D01*
X160396224Y-74680762D01*
X160426194Y-74672601D01*
X161745522Y-74486324D01*
X161754166Y-74485412D01*
X161762811Y-74484805D01*
X161771496Y-74484500D01*
X163430964Y-74484500D01*
X163438814Y-74482118D01*
X163581497Y-74453737D01*
X163727179Y-74393394D01*
X163858289Y-74305789D01*
X163953514Y-74210562D01*
X163981760Y-74189419D01*
X164008503Y-74174816D01*
X164050589Y-74160868D01*
X170546664Y-73243680D01*
X170615797Y-73253799D01*
G37*
%TD.AperFunction*%
%TD*%
%TA.AperFunction,Conductor*%
%TO.N,GND*%
G36*
X163217750Y-87690498D02*
G01*
X163218527Y-87700827D01*
X163321999Y-90804991D01*
X163322000Y-90805013D01*
X163573387Y-93989241D01*
X163559040Y-94057622D01*
X163510001Y-94107390D01*
X163449772Y-94123000D01*
X162496000Y-94123000D01*
X162496000Y-96174362D01*
X162494153Y-96174362D01*
X162490862Y-96220376D01*
X162448990Y-96276309D01*
X162431552Y-96287231D01*
X158801371Y-98160871D01*
X158732770Y-98174126D01*
X158667893Y-98148188D01*
X158627338Y-98091293D01*
X158620499Y-98050682D01*
X158620499Y-97670129D01*
X158620498Y-97670123D01*
X158614091Y-97610516D01*
X158563797Y-97475671D01*
X158563793Y-97475664D01*
X158477547Y-97360455D01*
X158477544Y-97360452D01*
X158362335Y-97274206D01*
X158362328Y-97274202D01*
X158227482Y-97223908D01*
X158227483Y-97223908D01*
X158167883Y-97217501D01*
X158167881Y-97217500D01*
X158167873Y-97217500D01*
X158167864Y-97217500D01*
X156572129Y-97217500D01*
X156572123Y-97217501D01*
X156512516Y-97223908D01*
X156377671Y-97274202D01*
X156377669Y-97274204D01*
X156288894Y-97340661D01*
X156223430Y-97365078D01*
X156155157Y-97350227D01*
X156140272Y-97340661D01*
X156052088Y-97274646D01*
X156052086Y-97274645D01*
X155917379Y-97224403D01*
X155917372Y-97224401D01*
X155857844Y-97218000D01*
X155310000Y-97218000D01*
X155310000Y-98594000D01*
X155290315Y-98661039D01*
X155237511Y-98706794D01*
X155186000Y-98718000D01*
X154934000Y-98718000D01*
X154866961Y-98698315D01*
X154821206Y-98645511D01*
X154810000Y-98594000D01*
X154810000Y-97218000D01*
X154802557Y-97210557D01*
X154769072Y-97149234D01*
X154774056Y-97079542D01*
X154781956Y-97062453D01*
X155558668Y-95670844D01*
X160246000Y-95670844D01*
X160252401Y-95730372D01*
X160252403Y-95730379D01*
X160302645Y-95865086D01*
X160302649Y-95865093D01*
X160388809Y-95980187D01*
X160388812Y-95980190D01*
X160503906Y-96066350D01*
X160503913Y-96066354D01*
X160638620Y-96116596D01*
X160638627Y-96116598D01*
X160698155Y-96122999D01*
X160698172Y-96123000D01*
X161996000Y-96123000D01*
X161996000Y-95373000D01*
X160246000Y-95373000D01*
X160246000Y-95670844D01*
X155558668Y-95670844D01*
X155915196Y-95032064D01*
X155965057Y-94983120D01*
X156023469Y-94968499D01*
X157257872Y-94968499D01*
X157317483Y-94962091D01*
X157452331Y-94911796D01*
X157567546Y-94825546D01*
X157653796Y-94710331D01*
X157704091Y-94575483D01*
X157704126Y-94575155D01*
X160246000Y-94575155D01*
X160246000Y-94873000D01*
X161996000Y-94873000D01*
X161996000Y-94123000D01*
X160698155Y-94123000D01*
X160638627Y-94129401D01*
X160638620Y-94129403D01*
X160503913Y-94179645D01*
X160503906Y-94179649D01*
X160388812Y-94265809D01*
X160388809Y-94265812D01*
X160302649Y-94380906D01*
X160302645Y-94380913D01*
X160252403Y-94515620D01*
X160252401Y-94515627D01*
X160246000Y-94575155D01*
X157704126Y-94575155D01*
X157710500Y-94515873D01*
X157710499Y-92900939D01*
X157730184Y-92833901D01*
X157746818Y-92813259D01*
X158379786Y-92180292D01*
X158379786Y-92180291D01*
X158379789Y-92180289D01*
X158467394Y-92049179D01*
X158527738Y-91903497D01*
X158558500Y-91748842D01*
X158558500Y-91591157D01*
X158558500Y-91507180D01*
X158578185Y-91440141D01*
X158608187Y-91407914D01*
X158715546Y-91327546D01*
X158801796Y-91212331D01*
X158852091Y-91077483D01*
X158858500Y-91017873D01*
X158858500Y-91017844D01*
X159658000Y-91017844D01*
X159664401Y-91077372D01*
X159664403Y-91077379D01*
X159714645Y-91212086D01*
X159714649Y-91212093D01*
X159800809Y-91327187D01*
X159800812Y-91327190D01*
X159915906Y-91413350D01*
X159915913Y-91413354D01*
X160050620Y-91463596D01*
X160050627Y-91463598D01*
X160110155Y-91469999D01*
X160110172Y-91470000D01*
X160508000Y-91470000D01*
X161008000Y-91470000D01*
X161405828Y-91470000D01*
X161405844Y-91469999D01*
X161465372Y-91463598D01*
X161465379Y-91463596D01*
X161600086Y-91413354D01*
X161600093Y-91413350D01*
X161715187Y-91327190D01*
X161715190Y-91327187D01*
X161801350Y-91212093D01*
X161801354Y-91212086D01*
X161851596Y-91077379D01*
X161851598Y-91077372D01*
X161857999Y-91017844D01*
X161858000Y-91017827D01*
X161858000Y-90420000D01*
X161008000Y-90420000D01*
X161008000Y-91470000D01*
X160508000Y-91470000D01*
X160508000Y-90420000D01*
X159658000Y-90420000D01*
X159658000Y-91017844D01*
X158858500Y-91017844D01*
X158858499Y-89790904D01*
X158874222Y-89730476D01*
X159102122Y-89322155D01*
X159658000Y-89322155D01*
X159658000Y-89920000D01*
X160508000Y-89920000D01*
X161008000Y-89920000D01*
X161858000Y-89920000D01*
X161858000Y-89322172D01*
X161857999Y-89322155D01*
X161851598Y-89262627D01*
X161851596Y-89262620D01*
X161801354Y-89127913D01*
X161801350Y-89127906D01*
X161715190Y-89012812D01*
X161715187Y-89012809D01*
X161600093Y-88926649D01*
X161600086Y-88926645D01*
X161465379Y-88876403D01*
X161465372Y-88876401D01*
X161405844Y-88870000D01*
X161008000Y-88870000D01*
X161008000Y-89920000D01*
X160508000Y-89920000D01*
X160508000Y-88870000D01*
X160110155Y-88870000D01*
X160050627Y-88876401D01*
X160050620Y-88876403D01*
X159915913Y-88926645D01*
X159915906Y-88926649D01*
X159800812Y-89012809D01*
X159800809Y-89012812D01*
X159714649Y-89127906D01*
X159714645Y-89127913D01*
X159664403Y-89262620D01*
X159664401Y-89262627D01*
X159658000Y-89322155D01*
X159102122Y-89322155D01*
X159635196Y-88367065D01*
X159685057Y-88318120D01*
X159742566Y-88303725D01*
X159742564Y-88303676D01*
X159742819Y-88303662D01*
X159743472Y-88303499D01*
X159745871Y-88303499D01*
X159745872Y-88303499D01*
X159805483Y-88297091D01*
X159940331Y-88246796D01*
X160055546Y-88160546D01*
X160141796Y-88045331D01*
X160192091Y-87910483D01*
X160198500Y-87850873D01*
X160198500Y-87754000D01*
X160218185Y-87686961D01*
X160270989Y-87641206D01*
X160322500Y-87630000D01*
X160401000Y-87630000D01*
X163195000Y-87630000D01*
X163210646Y-87630000D01*
X163217750Y-87690498D01*
G37*
%TD.AperFunction*%
%TD*%
M02*
